<svg width="16" height="16" viewBox="0 0 16 16" xmlns="http://www.w3.org/2000/svg"><title>ic_2</title><g fill="none" fill-rule="evenodd"><circle fill="#4C7B93" cx="8" cy="8" r="8"/><path d="M7.784 4c.584 0 1.086.104 1.506.312.42.208.74.488.96.84.22.352.33.74.33 1.164 0 .432-.088.844-.264 1.236-.176.392-.488.842-.936 1.35-.448.508-1.1 1.15-1.956 1.926h3.324l-.192 1.452h-5.28v-1.344c.984-.968 1.7-1.698 2.148-2.19.448-.492.762-.902.942-1.23.18-.328.27-.664.27-1.008 0-.328-.094-.586-.282-.774-.188-.188-.442-.282-.762-.282-.288 0-.544.066-.768.198-.224.132-.46.346-.708.642L5 5.404c.336-.44.738-.784 1.206-1.032A3.317 3.317 0 0 1 7.784 4z" fill="#FFF"/></g></svg>