<svg width="16" height="16" viewBox="0 0 16 16" xmlns="http://www.w3.org/2000/svg"><title>ic_3</title><g fill="none" fill-rule="evenodd"><circle fill="#4C7B93" cx="8" cy="8" r="8"/><path d="M7.916 4c.568 0 1.054.092 1.458.276.404.184.712.432.924.744.212.312.318.66.318 1.044 0 .488-.138.896-.414 1.224-.276.328-.666.564-1.17.708.544.056.988.25 1.332.582.344.332.516.802.516 1.41 0 .456-.12.874-.36 1.254s-.594.682-1.062.906c-.468.224-1.026.336-1.674.336-1.184 0-2.112-.408-2.784-1.224l1.02-.996c.272.272.538.47.798.594s.546.186.858.186c.376 0 .68-.104.912-.312.232-.208.348-.496.348-.864 0-.416-.11-.714-.33-.894-.22-.18-.55-.27-.99-.27h-.672l.204-1.308h.468c.36 0 .644-.092.852-.276.208-.184.312-.444.312-.78 0-.296-.096-.526-.288-.69-.192-.164-.456-.246-.792-.246-.568 0-1.096.236-1.584.708l-.936-1.02A3.842 3.842 0 0 1 7.916 4z" fill="#FFF"/></g></svg>