<svg width="192" height="174" viewBox="0 0 192 174" xmlns="http://www.w3.org/2000/svg"><title>ic_first_2</title><g fill="none" fill-rule="evenodd"><g fill-opacity=".1"><path d="M127.048 161.373c37.05-7.196 70.68-67.69 63.482-104.689-7.199-37-59.609-59.977-96.659-52.781-37.05 7.196-50.166 55.587-42.969 92.584 7.198 37 39.096 72.081 76.146 64.886" fill="#17BD52"/><path d="M81.575 167.464c42.105-8.177 89.525-32.598 81.332-74.708-8.192-42.11-26.509-90.73-68.615-82.554C52.187 18.38-7.43 36.507.762 78.617c8.193 42.11 38.707 97.024 80.813 88.847" fill="#46BDFA"/></g><path d="M135.845 103.431v24.677M95.948 128.108V103.43" stroke="#4C7B93" stroke-width="2" stroke-linecap="round"/><path fill="#E6E7E8" d="M76.95 97.737h74.094V36.995H76.95z"/><path d="M82.16 36.995v48.012a7.065 7.065 0 0 0 7.067 7.062h61.817V36.995H82.159z" fill="#FFF"/><path stroke="#4C7B93" stroke-width="2" stroke-linecap="round" d="M76.95 61.67V36.995h74.094v60.743H76.95V82.551"/><path d="M57.001 61.209c4.894 0 8.55-4 8.55-8.936v-2.979c0-4.934-3.656-8.936-8.55-8.936s-8.55 4.002-8.55 8.936v2.979c0 4.936 3.656 8.936 8.55 8.936" fill="#E6E7E8"/><path d="M57.592 57.669c3.891 0 6.797-3.18 6.797-7.102v-2.37c0-3.922-2.906-7.102-6.797-7.102-3.89 0-6.796 3.18-6.796 7.103v2.369c0 3.922 2.906 7.102 6.796 7.102" fill="#FFF"/><path d="M95.948 67.366H52.251c-9.02 0-15.199 2.869-15.199 11.39v17.082c0 4.072 3.525 7.594 7.6 7.594H69.35V76.856h17.1c5.732 0 9.498-5.278 9.498-9.49" fill="#46BDFA"/><path fill="#46BDFA" d="M46.551 130.005H69.35v-51.25H46.55z"/><path d="M51.828 122.944l.423-55.579h43.697s-2.28 6.832-3.924 8.154c-1.79 1.439-9.276 1.338-9.276 1.338H69.35v53.148H58.896a7.065 7.065 0 0 1-7.068-7.061" fill="#C2E8F2"/><path d="M69.35 78.755v51.25M46.552 78.755v51.25" stroke="#4C7B93" stroke-width="2" stroke-linecap="round" stroke-linejoin="round"/><path stroke="#B3DCB0" stroke-width="2.356" stroke-linecap="round" stroke-linejoin="round" d="M116.602 74.645l10.32-18.47h6.448l4.838-9.22H144"/><path d="M90.248 128.108h11.4M130.146 128.108h11.398" stroke="#4C7B93" stroke-width="2" stroke-linecap="round"/><path fill="#E9EAEB" d="M73.15 40.79h81.694V27.503H73.15z"/><path stroke="#4C7B93" stroke-width="2" stroke-linecap="round" stroke-linejoin="round" d="M73.15 40.79h81.694V27.503H73.15zM95.948 67.366H52.251c-9.02 0-15.199 2.869-15.199 11.39v17.082c0 4.072 3.525 7.594 7.6 7.594H69.35V76.856h17.1c5.732 0 9.498-5.278 9.498-9.49z"/><path fill="#C2E8F2" d="M51.828 105.837h16.294V90.99H51.828z"/><path fill="#46BDFA" d="M47.767 106.191h4.117V90.99h-4.117z"/><path d="M57.95 99.634v30.372" stroke="#4C7B93" stroke-width="2" stroke-linecap="round" stroke-linejoin="round"/><path stroke="#6BC74D" stroke-width="2.356" stroke-linecap="round" stroke-linejoin="round" d="M94.026 87.692h11.284l4.837-7.585h9.672l9.673-18.964h6.448l4.835-9.48H144"/><path d="M52.813 40.86c-2.057 1.18-3.55 3.216-4.113 5.649" stroke="#4C7B93" stroke-width="2" stroke-linecap="round" stroke-linejoin="round"/><path d="M156.76 130.005H34.657M168.353 130.005h-6" stroke="#4C7B93" stroke-width="2" stroke-linecap="round"/><path d="M48.451 51.677c0 4.934 3.655 8.934 8.55 8.934 4.894 0 8.549-4 8.549-8.934v-2.98c0-4.936-3.655-8.935-8.55-8.935" stroke="#4C7B93" stroke-width="2" stroke-linecap="round" stroke-linejoin="round"/><path d="M154.844 21.733h-6" stroke="#4C7B93" stroke-width="2.356" stroke-linecap="round"/><path d="M62.312 4.511a3.336 3.336 0 0 1-3.337 3.334 3.337 3.337 0 0 1-3.338-3.334 3.337 3.337 0 0 1 3.338-3.334 3.336 3.336 0 0 1 3.337 3.334z" stroke="#C2E8F2" stroke-width="2.356"/><path d="M180.673 50.103a3.14 3.14 0 1 1-6.234.554 3.14 3.14 0 0 1 3.949-3.033M13.802 135.523a3.14 3.14 0 1 1-6.234.554 3.139 3.139 0 0 1 3.949-3.032" stroke="#C2E8F2" stroke-width="2.356" stroke-linecap="round"/><path d="M100.284 170.67c0 .99-.802 1.79-1.792 1.79a1.79 1.79 0 1 1 0-3.58c.99 0 1.792.802 1.792 1.79zM177.165 94.21c0 .968-.786 1.753-1.755 1.753a1.754 1.754 0 1 1 1.755-1.752zM12.673 62.144a1.962 1.962 0 1 1-3.925 0 1.962 1.962 0 0 1 3.925 0zM167.52 11.943a1.84 1.84 0 0 1-3.681 0 1.84 1.84 0 1 1 3.681 0z" stroke="#C2E8F2" stroke-width="2.356"/><path d="M44.597 136.077l-4.337 4.333M44.597 61.56l-4.337-4.334" stroke="#C2E8F2" stroke-width="2.356" stroke-linecap="round"/><path fill="none" d="M0-10h192v192H0z"/></g></svg>