<svg width="128" height="106" viewBox="0 0 128 106" xmlns="http://www.w3.org/2000/svg"><title>ic_include_2</title><g fill="none" fill-rule="evenodd"><path fill="none" d="M0-10h128v128H0z"/><path d="M39.72 4.913C16.13 10.113-4.397 49.286.818 72.792c5.214 23.504 39.13 37.316 62.721 32.116 23.59-5.2 31.189-36.31 25.974-59.815C84.3 21.589 63.311-.287 39.72 4.913" fill="#17BD52" opacity=".1"/><path d="M74.205 2.072c-26.81 5.91-56.753 22.278-50.819 49.03 5.935 26.751 18.455 57.494 45.265 51.583 26.81-5.91 64.662-18.458 58.727-45.21-5.934-26.751-26.363-61.313-53.173-55.403" fill="#46BDFA" opacity=".1"/><path d="M108.811 89.075H22.527M115.05 89.075h-2.667M75.507 29.02h-4" stroke="#4C7B93" stroke-width="2" stroke-linecap="round"/><path d="M86.944 18.485l-2.455 2.446M28.944 20.93l-2.455-2.446" stroke="#C2E8F2" stroke-width="2" stroke-linecap="round"/><path d="M119.726 37.307a2.227 2.227 0 0 1-2.23 2.224 2.227 2.227 0 0 1-2.231-2.224c0-1.228.998-2.224 2.23-2.224s2.23.996 2.23 2.224z" stroke="#C2E8F2" stroke-width="2"/><path d="M70.169 17.869a2.096 2.096 0 0 1-2.067 2.462c-1.16 0-2.1-.937-2.1-2.093a2.097 2.097 0 0 1 2.639-2.023" stroke="#C2E8F2" stroke-width="2" stroke-linecap="round"/><path d="M61.772 96.94c0 .66-.536 1.194-1.197 1.194a1.196 1.196 0 0 1-1.198-1.194c0-.66.536-1.194 1.198-1.194.661 0 1.197.535 1.197 1.194zM9.175 67.99c0 .645-.525 1.17-1.173 1.17a1.172 1.172 0 0 1-1.173-1.17c0-.646.526-1.17 1.173-1.17.648 0 1.173.524 1.173 1.17zM6.549 22.576a1.31 1.31 0 0 1-1.312 1.308 1.31 1.31 0 0 1-1.313-1.308 1.31 1.31 0 0 1 1.313-1.309 1.31 1.31 0 0 1 1.312 1.309zM103.377 2.39c0 .677-.55 1.226-1.23 1.226-.68 0-1.23-.549-1.23-1.226 0-.678.55-1.227 1.23-1.227.68 0 1.23.549 1.23 1.227z" stroke="#C2E8F2" stroke-width="2"/><path d="M43.76 3.281V7.27M41.76 5.275h4M120.383 61.003v3.988M118.383 62.997h4M102.944 46.396l-2.455 2.446" stroke="#C2E8F2" stroke-width="2" stroke-linecap="round"/><path d="M102.328 27.203c3.542 0 6.252 3.007 6.252 6.716v43.61H40.23V33.92c0-3.837 2.138-6.716 5.68-6.716h56.418z" fill="#FFF"/><path d="M102.328 27.203c3.542 0 6.252 3.007 6.252 6.716v43.61H40.23V33.92c0-3.837 2.138-6.716 5.68-6.716h56.418z" stroke="#4C7B93" stroke-width="2" stroke-linecap="round" stroke-linejoin="round"/><path d="M113.74 77.53H33.781v6.846a4.665 4.665 0 0 0 4.673 4.658h71.06a4.218 4.218 0 0 0 4.224-4.212V77.53z" fill="#FFF"/><path d="M113.74 77.53H33.781v6.846a4.665 4.665 0 0 0 4.673 4.658h71.06a4.218 4.218 0 0 0 4.224-4.212V77.53zM68.602 83.282h14.186M103.422 48.772v24.444M45.389 73.216V32.955h23.213M86.657 30.635h2.58M91.815 30.635h2.58M96.974 30.635h2.58" stroke="#4C7B93" stroke-width="2" stroke-linecap="round" stroke-linejoin="round"/><path d="M94.145 56.103c0 6.885-5.234 12.467-11.69 12.467-6.456 0-11.69-5.582-11.69-12.467 0-6.886 5.234-12.468 11.69-12.468 6.456 0 11.69 5.582 11.69 12.468" fill="#99D885"/><path fill="#C2E8F2" d="M60.575 71.128h7.193v-7.672h-7.193z"/><path stroke="#4C7B93" stroke-width="2" stroke-linecap="round" stroke-linejoin="round" d="M60.575 71.128h7.193v-7.672h-7.193z"/><path fill="#6BC74D" d="M67.767 71.128h7.194V53.865h-7.194z"/><path stroke="#4C7B93" stroke-width="2" stroke-linecap="round" stroke-linejoin="round" d="M67.767 71.128h7.194V53.865h-7.194z"/><path fill="#C2E8F2" d="M74.961 71.128h7.194V59.619h-7.194z"/><path stroke="#4C7B93" stroke-width="2" stroke-linecap="round" stroke-linejoin="round" d="M74.961 71.128h7.194V59.619h-7.194z"/><path fill="#6BC74D" d="M82.155 71.128h7.194v-20.46h-7.194z"/><path stroke="#4C7B93" stroke-width="2" stroke-linecap="round" stroke-linejoin="round" d="M82.155 71.128h7.194v-20.46h-7.194zM83.954 37.88h5.395v5.755"/><path d="M70.765 37.88l-4.795 5.116M64.77 44.274l-1.198 1.279" stroke="#99D885" stroke-width="2" stroke-linecap="round" stroke-linejoin="round"/><path d="M94.878 71.128h1.2M55.045 71.128h1.199M92.346 71.128h-33.57M89.349 37.88L77.959 50.03l-5.995-6.394-6.594 7.033M64.171 51.947l-1.798 1.918M61.174 55.144l-1.199 1.279M58.776 57.701l-1.199 1.279" stroke="#4C7B93" stroke-width="2" stroke-linecap="round" stroke-linejoin="round"/><path d="M62.373 46.832l-1.199 1.279M59.975 49.39l-1.199 1.278" stroke="#99D885" stroke-width="2" stroke-linecap="round" stroke-linejoin="round"/><path fill="#FFF" d="M9.475 52.831h47.478V17.336H9.475z"/><path stroke="#4C7B93" stroke-width="2" stroke-linecap="round" d="M41.127 17.336h15.826V52.83H9.475V17.336H27.28"/><path fill="#E9EAEB" d="M15.41 45.93h17.804V26.21H15.41z"/><path stroke="#4C7B93" stroke-width="2" stroke-linecap="round" stroke-linejoin="round" d="M15.41 45.93h17.804V26.21H15.41z"/><path d="M24.312 45.93h8.902v-4.805c-.42-.329-4.769-2.098-8.902-2.098-4.133 0-8.483 1.77-8.902 2.098v4.804h8.902z" fill="#C2E8F2"/><path d="M24.312 45.93h8.902v-4.805c-.42-.329-4.769-2.098-8.902-2.098-4.133 0-8.483 1.77-8.902 2.098v4.804h8.902z" stroke="#4C7B93" stroke-width="2" stroke-linecap="round" stroke-linejoin="round"/><path d="M24.312 29.167c-2.176 0-3.957 1.85-3.957 4.11v2.628c0 2.26 1.78 4.108 3.957 4.108 2.176 0 3.957-1.849 3.957-4.108v-2.628c0-2.26-1.781-4.11-3.957-4.11" fill="#FFF"/><path d="M24.312 29.167c-2.176 0-3.957 1.85-3.957 4.11v2.628c0 2.26 1.78 4.108 3.957 4.108 2.176 0 3.957-1.849 3.957-4.108v-2.628c0-2.26-1.781-4.11-3.957-4.11zM38.16 30.154h12.858M38.16 35.084h12.858M38.16 40.013h7.912M26.29 21.28h15.826M22.169 21.28H20.19M46.237 21.28h1.978" stroke="#4C7B93" stroke-width="2" stroke-linecap="round" stroke-linejoin="round"/></g></svg>