<svg width="192" height="158" viewBox="0 0 192 158" xmlns="http://www.w3.org/2000/svg"><title>ic_first_3</title><g fill="none" fill-rule="evenodd"><path fill="none" d="M0-17h192v192H0z"/><path d="M132.42 5.28c35.386 7.824 66.176 66.77 58.354 102.14-7.821 35.369-58.695 56.154-94.082 48.328-35.386-7.825-46.783-54.638-38.962-90.007 7.82-35.369 39.304-68.288 74.69-60.462" fill="#17BD52" opacity=".1"/><path d="M80.692 1.004c40.215 8.894 85.13 33.523 76.228 73.778-8.902 40.255-27.682 86.514-67.896 77.621C48.81 143.51-7.97 124.628.932 84.373 9.834 44.116 40.478-7.89 80.692 1.003" fill="#46BDFA" opacity=".1"/><path d="M117.345 41.44H107.01v13.77h21.637c0-7.87-5.06-13.77-11.302-13.77" fill="#E9EAEB"/><path d="M112.91 55.21h15.737c0-7.869-5.06-13.77-11.301-13.77H99.142" stroke="#4C7B93" stroke-width="2" stroke-linecap="round" stroke-linejoin="round"/><path d="M48 72.18V52.748c0-6.283 5.565-11.306 11.802-11.306h58.358-.059c-6.237 0-11.09 5.268-11.09 11.552v66.915c0 6.283-5.867 12.015-12.105 12.015H48v-32.93" fill="#FFF"/><path d="M48 72.18V52.748c0-6.283 5.565-11.306 11.802-11.306h58.358-.059c-6.237 0-11.09 5.268-11.09 11.552v66.915c0 6.283-5.867 12.015-12.105 12.015H48v-32.93" stroke="#4C7B93" stroke-width="2" stroke-linecap="round" stroke-linejoin="round"/><path d="M83.777 120.121H33.79" fill="#C2E8F2"/><path d="M83.777 120.121H33.79" stroke="#4C7B93" stroke-width="2" stroke-linecap="round" stroke-linejoin="round"/><path fill="#C2E8F2" d="M93.777 132.174H44.472l-7.331-5.669-2.67-6.384h49.306l1.84 5.901z"/><path d="M85.617 126.022H36.866c1.73 3.35 6.296 6.152 11.53 6.152l46.29-.251c-5.234 0-6.314-3.016-9.07-5.901" fill="#46BDFA"/><path d="M59.801 61.11h35.406M59.801 68.979h35.406M59.801 76.847h35.406M83.406 108.319h11.801" stroke="#4C7B93" stroke-width="2" stroke-linecap="round" stroke-linejoin="round"/><path d="M67.876 105.508s-1.128-9.474-5.908-14.253L23.976 53.262c-2.364-2.363-6.081-2.514-8.471-.124-2.39 2.389-2.238 6.106.125 8.47L53.623 99.6c4.779 4.779 14.253 5.908 14.253 5.908" fill="#C2E8F2"/><path d="M67.876 105.508s-1.128-9.474-5.908-14.253L23.976 53.262c-2.364-2.363-6.081-2.514-8.471-.124-2.39 2.389-2.238 6.106.125 8.47L53.623 99.6c4.779 4.779 14.253 5.908 14.253 5.908z" stroke="#4C7B93" stroke-width="2" stroke-linecap="round"/><path d="M28.594 85.7L10.512 67.616" fill="#46BDFA"/><path d="M28.594 85.7L10.512 67.616" stroke="#4C7B93" stroke-width="2" stroke-linecap="round"/><path d="M16.076 73.18l5.563-5.562" fill="#46BDFA"/><path d="M16.076 73.18l5.563-5.562" stroke="#4C7B93" stroke-width="2" stroke-linecap="round"/><path d="M67.54 105.172l2.781 2.781" fill="#46BDFA"/><path d="M67.54 105.172l2.781 2.781" stroke="#4C7B93" stroke-width="2" stroke-linecap="round"/><path d="M53.63 99.609l8.346-8.346" fill="#46BDFA"/><path d="M53.63 99.609l8.346-8.346" stroke="#4C7B93" stroke-width="2" stroke-linecap="round"/><path d="M21.64 67.617l8.345-8.345" fill="#46BDFA"/><path d="M21.64 67.617l8.345-8.345" stroke="#4C7B93" stroke-width="2" stroke-linecap="round"/><path d="M75.505 108.319h4" stroke="#4C7B93" stroke-width="2" stroke-linecap="round" stroke-linejoin="round"/><path d="M163.217 131.923H33.791M172.575 131.923h-4" stroke="#4C7B93" stroke-width="2" stroke-linecap="round"/><path d="M128.879 84.834c1.25-1.464 7.743-12.268 9.175-14.147.496-.652.595-1.018.22-1.483-.395-.486-1.228-.46-2.163-.19-1.744.51-3.896-.034-6.325-.737-4.863-1.403-11.877-3.39-14.7 1.74-.272.496-.084.543.46 1.144 1.479 1.641 7.71 12.21 8.982 13.673h4.35z" fill="#99D885"/><path d="M128.879 84.834c1.25-1.464 7.743-12.268 9.175-14.147.496-.652.595-1.018.22-1.483-.395-.486-1.228-.46-2.163-.19-1.744.51-3.896-.034-6.325-.737-4.863-1.403-11.877-3.39-14.7 1.74-.272.496-.084.543.46 1.144 1.479 1.641 7.71 12.21 8.982 13.673h4.35z" stroke="#4C7B93" stroke-width="2" stroke-linecap="round" stroke-linejoin="round"/><path d="M156.028 124.268c-1.442-3.718-2.069-7.627-2.524-12.653-.3-3.3-.537-5.908-.936-7.578-1.507-6.294-4.91-13.197-19.275-21.46-5.658-3.253-10.395-1.536-13.333 0-14.64 7.659-17.767 15.166-19.274 21.46-.4 1.67-.637 4.277-.936 7.575-.456 5.026-1.08 8.938-2.523 12.656a3.23 3.23 0 0 0-.005 2.309c.284.739.829 1.32 1.51 1.616 8.55 3.696 18.269 3.432 28.236 3.432 10.032-.001 20.306.239 27.697-3.5 1.332-.672 1.935-2.38 1.363-3.857" fill="#99D885"/><path d="M154.256 117.622c-5.41 6.404-13.498 10.476-22.539 10.476-16.088 0-29.159-12.88-29.485-28.89-.709 1.671-1.177 3.286-1.546 4.83-.4 1.67-.636 4.275-.936 7.573-.456 5.027-1.08 8.94-2.524 12.657a3.233 3.233 0 0 0-.004 2.308c.284.74.828 1.321 1.511 1.616 8.55 3.696 18.268 3.432 28.235 3.432 10.031 0 20.307.24 27.696-3.498 1.333-.674 1.936-2.382 1.363-3.858-.813-2.097-1.36-4.262-1.77-6.646" fill="#6BC74D"/><path d="M156.028 124.268c-1.442-3.718-2.069-7.627-2.524-12.653-.3-3.3-.537-5.908-.936-7.578-1.507-6.294-4.91-13.197-19.275-21.46-5.658-3.253-10.395-1.536-13.333 0-14.64 7.659-17.767 15.166-19.274 21.46-.4 1.67-.637 4.277-.936 7.575-.456 5.026-1.08 8.938-2.523 12.656a3.23 3.23 0 0 0-.005 2.309c.284.739.829 1.32 1.51 1.616 8.55 3.696 18.269 3.432 28.236 3.432 10.032-.001 20.306.239 27.697-3.5 1.332-.672 1.935-2.38 1.363-3.857zM129.33 68.096l-1.025 8.169" stroke="#4C7B93" stroke-width="2" stroke-linecap="round" stroke-linejoin="round"/><path d="M122.679 111.356a2.632 2.632 0 0 0 2.632 2.633h2.633a2.632 2.632 0 0 0 2.63-2.633v-.735a2.63 2.63 0 0 0-1.798-2.497l-4.297-1.432a2.632 2.632 0 0 1-1.8-2.498v-.734a2.632 2.632 0 0 1 2.632-2.633h2.633a2.632 2.632 0 0 1 2.63 2.633M126.627 100.826v-5.264M126.627 113.989v5.263" stroke="#FFF" stroke-width="2" stroke-linecap="round" stroke-linejoin="round"/><path d="M109.261 36.556h-6" stroke="#4C7B93" stroke-width="2" stroke-linecap="round"/><path d="M130.416 29.7l-3.682 3.682M43.416 33.382L39.734 29.7" stroke="#C2E8F2" stroke-width="2" stroke-linecap="round"/><path d="M179.59 58.025a3.346 3.346 0 1 1-6.693 0 3.346 3.346 0 0 1 6.692 0z" stroke="#C2E8F2" stroke-width="2"/><path d="M105.254 18.774a3.149 3.149 0 0 1-3.101 3.705 3.148 3.148 0 1 1 .809-6.193" stroke="#C2E8F2" stroke-width="2" stroke-linecap="round"/><path d="M92.658 147.758a1.796 1.796 0 1 1-3.592 0 1.796 1.796 0 0 1 3.592 0zM13.763 104.195a1.76 1.76 0 1 1-3.52 0 1.76 1.76 0 0 1 3.52 0zM9.822 35.858a1.968 1.968 0 1 1-3.935 0 1.968 1.968 0 0 1 3.936 0zM155.066 5.483a1.845 1.845 0 1 1-3.69 0 1.845 1.845 0 0 1 3.69 0z" stroke="#C2E8F2" stroke-width="2"/><path d="M65.64 6.824v6M62.64 9.824h6M170.575 93.682v6M167.575 96.682h6" stroke="#C2E8F2" stroke-width="2" stroke-linecap="round"/><path d="M83.777 120.121H33.79c1.73 5.9 7.502 11.802 12.736 11.802h48.16c-5.235 0-9.625-5.902-10.91-11.802z" stroke="#4C7B93" stroke-width="2" stroke-linecap="round" stroke-linejoin="round"/><path d="M154.416 71.7l-3.682 3.682" stroke="#C2E8F2" stroke-width="2" stroke-linecap="round"/></g></svg>