<svg width="24" height="24" viewBox="0 0 24 24" xmlns="http://www.w3.org/2000/svg"><title>ic_phone</title><path d="M23.949 18.596c-.068-.205-.5-.506-1.295-.904a39.786 39.786 0 0 0-.92-.511 85.824 85.824 0 0 1-1.083-.597 36.159 36.159 0 0 1-.912-.528 22.388 22.388 0 0 0-.426-.298 4.79 4.79 0 0 0-.606-.367 1.116 1.116 0 0 0-.485-.12c-.228 0-.511.163-.852.487a8.3 8.3 0 0 0-.938 1.057c-.284.38-.585.732-.903 1.056-.318.324-.58.486-.784.486a1.16 1.16 0 0 1-.384-.085 3.976 3.976 0 0 1-.35-.144 6.37 6.37 0 0 1-.408-.24c-.194-.119-.302-.184-.324-.196-1.557-.863-2.892-1.852-4.006-2.965-1.113-1.114-2.102-2.45-2.966-4.006a9.873 9.873 0 0 0-.196-.324 6.146 6.146 0 0 1-.239-.41 3.694 3.694 0 0 1-.145-.349 1.153 1.153 0 0 1-.085-.383c0-.205.162-.466.486-.784.324-.318.676-.62 1.057-.903.38-.284.733-.597 1.057-.938.324-.34.485-.625.485-.852 0-.159-.04-.32-.119-.486a4.738 4.738 0 0 0-.366-.605c-.165-.238-.265-.38-.299-.426a37.44 37.44 0 0 1-.528-.912c-.182-.324-.38-.685-.597-1.082a40.53 40.53 0 0 0-.511-.92C5.909.55 5.608.119 5.404.05A.955.955 0 0 0 5.046 0c-.307 0-.708.057-1.202.17-.495.114-.884.233-1.168.358-.568.239-1.17.932-1.807 2.08C.29 3.676 0 4.733 0 5.778c0 .306.02.605.06.895.04.29.11.616.213.98.102.364.185.634.247.81.062.176.179.49.35.946.17.454.272.732.306.835.398 1.113.87 2.107 1.415 2.983.897 1.454 2.122 2.957 3.673 4.508 1.551 1.551 3.054 2.776 4.509 3.673.875.546 1.87 1.017 2.983 1.415.102.034.38.136.835.307.454.17.77.287.946.35.176.062.446.145.81.247.364.102.69.173.98.214.29.039.588.059.895.059 1.045 0 2.102-.29 3.17-.87 1.148-.636 1.84-1.238 2.08-1.806.125-.284.244-.674.357-1.168.114-.494.171-.895.171-1.202a.95.95 0 0 0-.051-.358z" fill="#F96232" fill-rule="nonzero"/></svg>