<svg width="192" height="161" viewBox="0 0 192 161" xmlns="http://www.w3.org/2000/svg"><title>ic_first_1</title><g fill="none" fill-rule="evenodd"><path fill="none" d="M0-15h192v192H0z"/><path d="M178.734 55.641a3.346 3.346 0 1 1-6.692 0 3.346 3.346 0 0 1 6.692 0z" stroke="#C2E8F2" stroke-width="2"/><path d="M104.398 16.39a3.148 3.148 0 0 1-3.1 3.705 3.15 3.15 0 1 1 .808-6.193" stroke="#C2E8F2" stroke-width="2" stroke-linecap="round"/><path d="M91.803 145.375a1.796 1.796 0 1 1-3.592 0 1.796 1.796 0 0 1 3.592 0zM12.908 101.811a1.76 1.76 0 1 1-3.52 0 1.76 1.76 0 0 1 3.52 0zM8.968 33.474a1.968 1.968 0 1 1-3.936 0 1.968 1.968 0 0 1 3.936 0zM154.21 3.1a1.845 1.845 0 1 1-3.689 0 1.845 1.845 0 0 1 3.69 0z" stroke="#C2E8F2" stroke-width="2"/><path d="M64.785 4.441v6M61.785 7.441h6M169.72 91.299v6M166.72 94.299h6M153.56 69.317L149.88 73" stroke="#C2E8F2" stroke-width="2" stroke-linecap="round"/><path d="M132.42 8.889c35.386 7.825 66.175 66.77 58.353 102.14-7.82 35.369-58.695 56.154-94.082 48.329-35.386-7.825-46.783-54.64-38.96-90.008 7.82-35.368 39.302-68.287 74.688-60.461" fill="#46BDFA" opacity=".1"/><path d="M80.692 4.613c40.215 8.894 85.13 33.523 76.228 73.778-8.902 40.255-27.682 86.514-67.897 77.621C48.81 147.12-7.97 128.237.933 87.982 9.833 47.725 40.476-4.28 80.692 4.612" fill="#17BD52" opacity=".1"/><path d="M118.566 74.879l1.451-1.451c2.175-2.236 5.136-5.801 10.152-5.801h7.251c3.906 0 8.703 1.54 8.703 8.702v8.702c0 3.445-2.996 5.8-5.802 5.8" stroke="#4C7B93" stroke-width="2" stroke-linecap="round" stroke-linejoin="round"/><path stroke="#4C7B93" stroke-width="2" stroke-linecap="round" stroke-linejoin="round" d="M127.269 86.481V77.78h-1.45l-2.901 2.9M140.322 76.329v17.404M85.208 106.95a35.376 35.376 0 0 0-5.758 18.69h71.024c-.388-19.289-16.131-34.808-35.512-34.808a35.76 35.76 0 0 0-6.548.602"/><path d="M93.91 125.64v-3.626c0-2.002 1.646-3.626 3.648-3.626h10.153a3.607 3.607 0 0 0 3.604-3.626v-1.45a3.635 3.635 0 0 1 3.637-3.626h-.005a3.621 3.621 0 0 0 3.62-3.626v-1.45a3.608 3.608 0 0 0-3.605-3.626h-6.548M141.772 103.886H130.19c-1.602 0-2.921 1.298-2.921 2.9v1.45c0 1.602 1.319 2.9 2.92 2.9h2.902a2.901 2.901 0 0 1 0 5.803h-7.252c-3.203 0-5.822 2.597-5.822 5.8v2.902" stroke="#4C7B93" stroke-width="2" stroke-linecap="round" stroke-linejoin="round"/><path fill="#46BDFA" d="M89.56 112.587h14.503V76.329H89.56z"/><path d="M111.315 73.428c-2.494-2.796-5.137-5.801-10.152-5.801H92.46c-3.906 0-8.703 1.54-8.703 8.702v10.153c0 3.444 2.996 5.8 5.802 5.8l14.503 20.305V77.78h1.45l5.802 5.8c3.762 3.763 8.702 0 8.702 0s-6.646-7.845-8.702-10.152" fill="#C2E8F2"/><path d="M104.063 112.587V77.779h1.451s3.716 3.717 5.801 5.8c3.762 3.764 8.702 0 8.702 0s-6.646-7.845-8.702-10.151c-2.494-2.796-5.137-5.801-10.152-5.801H92.46c-3.905 0-8.702 1.54-8.702 8.702v10.153c0 3.444 2.996 5.8 5.802 5.8M89.56 76.329v36.258M96.811 90.832v21.755" stroke="#4C7B93" stroke-width="2" stroke-linecap="round" stroke-linejoin="round"/><path d="M96.811 48.772c-3.084 0-5.768 2.396-5.8 5.802v2.9c-.034 3.406 2.717 5.801 5.8 5.801 3.084 0 5.768-2.395 5.801-5.8v-2.9c.035-3.407-2.716-5.803-5.8-5.803" fill="#FFF"/><path d="M96.811 48.772c-3.084 0-5.768 2.396-5.8 5.802v2.9c-.034 3.406 2.717 5.801 5.8 5.801 3.084 0 5.768-2.395 5.801-5.8v-2.9c.035-3.407-2.716-5.803-5.8-5.803z" stroke="#4C7B93" stroke-width="2" stroke-linecap="round" stroke-linejoin="round"/><path d="M133.07 48.772c-3.084 0-5.767 2.396-5.801 5.802v2.9c-.034 3.406 2.717 5.801 5.8 5.801 3.085 0 5.769-2.395 5.803-5.8v-2.9c.033-3.407-2.718-5.803-5.802-5.803" fill="#FFF"/><path d="M133.07 48.772c-3.084 0-5.767 2.396-5.801 5.802v2.9c-.034 3.406 2.717 5.801 5.8 5.801 3.085 0 5.769-2.395 5.803-5.8v-2.9c.033-3.407-2.718-5.803-5.802-5.803z" stroke="#4C7B93" stroke-width="2" stroke-linecap="round" stroke-linejoin="round"/><path d="M150.474 125.64H28.057M163.98 125.64h-5.905" stroke="#4C7B93" stroke-width="2" stroke-linecap="round"/><path d="M77.225 61.393c0 10.455-8.476 18.931-18.931 18.93-10.455 0-18.93-8.476-18.93-18.93 0-10.455 8.477-18.93 18.932-18.93 10.454 0 18.929 8.475 18.929 18.93" fill="#99D885"/><path d="M74.313 80.27a24.654 24.654 0 0 1-16.023 5.883c-13.67 0-24.754-11.083-24.754-24.755 0-13.67 11.084-24.754 24.755-24.754a24.656 24.656 0 0 1 16.02 5.882" stroke="#4C7B93" stroke-width="2" stroke-linecap="round"/><path d="M78.633 86.15a31.904 31.904 0 0 1-20.345 7.287c-10.833 0-20.41-5.377-26.208-13.608M32.083 42.971c5.798-8.227 15.374-13.602 26.205-13.602a31.903 31.903 0 0 1 20.395 7.33" stroke="#4C7B93" stroke-width="2" stroke-linecap="round"/><path d="M54.346 65.342a2.632 2.632 0 0 0 2.632 2.632h2.633a2.632 2.632 0 0 0 2.632-2.632v-.735a2.632 2.632 0 0 0-1.8-2.497l-4.297-1.433a2.632 2.632 0 0 1-1.8-2.497v-.734a2.632 2.632 0 0 1 2.632-2.633h2.633a2.632 2.632 0 0 1 2.632 2.633M58.294 54.812v-5.265M58.294 67.974v5.264" stroke="#FFF" stroke-width="2" stroke-linecap="round" stroke-linejoin="round"/><path d="M129.56 27.317L125.88 31M42.56 30.999l-3.681-3.682" stroke="#C2E8F2" stroke-width="2" stroke-linecap="round"/></g></svg>