<svg width="60" height="57" viewBox="0 0 60 57" xmlns="http://www.w3.org/2000/svg" xmlns:xlink="http://www.w3.org/1999/xlink"><title>0</title><defs><linearGradient x1="50%" y1="0%" x2="50%" y2="138.29%" id="c"><stop stop-color="#10CD4F" offset="0%"/><stop stop-color="#059D38" offset="100%"/></linearGradient><circle id="b" cx="24" cy="24" r="24"/><filter x="-14.6%" y="-10.4%" width="129.2%" height="129.2%" filterUnits="objectBoundingBox" id="a"><feOffset dy="2" in="SourceAlpha" result="shadowOffsetOuter1"/><feGaussianBlur stdDeviation="2" in="shadowOffsetOuter1" result="shadowBlurOuter1"/><feColorMatrix values="0 0 0 0 0.00784313725 0 0 0 0 0.31372549 0 0 0 0 0.0549019608 0 0 0 0.2 0" in="shadowBlurOuter1"/></filter><path d="M8.22 2c2.64 0 4.67.925 6.09 2.775 1.42 1.85 2.13 4.495 2.13 7.935 0 3.44-.71 6.095-2.13 7.965s-3.45 2.805-6.09 2.805c-2.64 0-4.67-.935-6.09-2.805S0 16.15 0 12.71c0-3.44.71-6.085 2.13-7.935C3.55 2.925 5.58 2 8.22 2zm0 4.29c-.56 0-.995.185-1.305.555-.31.37-.53 1.015-.66 1.935-.13.92-.195 2.23-.195 3.93 0 1.72.065 3.035.195 3.945.13.91.35 1.555.66 1.935.31.38.745.57 1.305.57.58 0 1.02-.175 1.32-.525.3-.35.515-.985.645-1.905s.195-2.26.195-4.02c0-1.78-.065-3.125-.195-4.035-.13-.91-.345-1.535-.645-1.875-.3-.34-.74-.51-1.32-.51z" id="e"/><filter x="-149%" y="-86.1%" width="398.1%" height="328.1%" filterUnits="objectBoundingBox" id="d"><feMorphology radius=".5" operator="dilate" in="SourceAlpha" result="shadowSpreadOuter1"/><feOffset dy="6" in="shadowSpreadOuter1" result="shadowOffsetOuter1"/><feGaussianBlur stdDeviation="7" in="shadowOffsetOuter1" result="shadowBlurOuter1"/><feComposite in="shadowBlurOuter1" in2="SourceAlpha" operator="out" result="shadowBlurOuter1"/><feColorMatrix values="0 0 0 0 0.314369351 0 0 0 0 0.8883757 0 0 0 0 0.759899616 0 0 0 0.522022192 0" in="shadowBlurOuter1"/></filter><text id="g" font-family="FiraSans-Black, Fira Sans" font-size="16" font-weight="700" fill="#FCFFFC" fill-opacity=".893"><tspan x="19" y="19">%</tspan></text><filter x="-163.3%" y="-80.4%" width="426.7%" height="313%" filterUnits="objectBoundingBox" id="f"><feOffset dy="6" in="SourceAlpha" result="shadowOffsetOuter1"/><feGaussianBlur stdDeviation="7" in="shadowOffsetOuter1" result="shadowBlurOuter1"/><feColorMatrix values="0 0 0 0 0.314369351 0 0 0 0 0.8883757 0 0 0 0 0.759899616 0 0 0 0.522022192 0" in="shadowBlurOuter1"/></filter></defs><g fill="none" fill-rule="evenodd"><g transform="translate(7 2)"><use fill="#000" filter="url(#a)" xlink:href="#b"/><use fill="url(#c)" xlink:href="#b"/></g><g transform="translate(14 14)"><use fill="#000" filter="url(#d)" xlink:href="#e"/><use fill-opacity=".893" fill="#FCFFFC" xlink:href="#e"/></g><g stroke="#52C106" stroke-opacity=".058" transform="translate(14 14)"><use fill="#FCFFFC" fill-opacity=".893" filter="url(#f)" xlink:href="#g"/><use fill="#FCFFFC" fill-opacity=".893" xlink:href="#g"/><use xlink:href="#g"/></g></g></svg>