<svg width="520" height="321" viewBox="0 0 520 321" xmlns="http://www.w3.org/2000/svg"><title>271A44B3-8C3F-42F3-B1D8-C17605DD6C49</title><g fill="none" fill-rule="evenodd"><g fill-opacity=".1"><path d="M414.097 59.887c69.337 15.314 87.408 118.966 72.084 188.186-15.326 69.22-68.293 69.187-137.63 53.873-69.337-15.316-138.385-66.223-123.06-135.444C240.817 97.283 344.76 44.572 414.097 59.887" fill="#46BDFA"/><path d="M185.513 113.987c69.338 15.316 105.008 72.537 89.682 141.757-15.325 69.22-61.848 62.667-131.186 47.352C74.672 287.78 11.244 244.387 26.57 175.166c15.325-69.219 89.607-76.493 158.943-61.179" fill="#17BD52"/><path d="M219.883 1.963C298.68 19.367 386.688 67.57 369.246 146.354c-17.443 78.783-54.241 169.319-133.039 151.914C157.41 280.863 46.157 243.907 63.6 165.124 81.043 86.341 141.085-15.442 219.883 1.963" fill="#46BDFA"/><path d="M502.676 283.97c5.086-5.016 7.629-15.654 7.629-31.912 0-32.2-31.427-62.128-67.964-62.128-4.693 0-9.42.49-14.049 1.454l-4.46.93-2.185-3.994a68.46 68.46 0 0 0-60.076-35.628c-8.306 0-16.544 1.545-24.485 4.591l-3.377 1.295-2.773-2.323a68.511 68.511 0 0 0-43.924-15.973c-27.124 0-51.71 16.055-62.637 40.903l-1.927 4.38-4.725-.8c-4.147-.702-7.902-1.043-11.484-1.043-37.725 0-68.417 30.656-68.417 68.336v12.483l364.854 19.43z" fill="#17BD52"/></g><path d="M341.336 76.57l-6.716 6.707M182.615 83.278l-6.716-6.708" stroke="#C2E8F2" stroke-width="3.992" stroke-linecap="round"/><path d="M431.047 128.182a6.1 6.1 0 0 1-6.104 6.097 6.1 6.1 0 0 1-6.104-6.097 6.1 6.1 0 0 1 6.104-6.097 6.1 6.1 0 0 1 6.104 6.097z" stroke="#C2E8F2" stroke-width="3.992"/><path d="M295.43 62.64a5.741 5.741 0 0 1-5.656 6.751 5.741 5.741 0 0 1-5.744-5.737 5.742 5.742 0 0 1 5.745-5.739c.51 0 1.005.066 1.476.19" stroke="#C2E8F2" stroke-width="3.992" stroke-linecap="round"/><path d="M222.405 95.347c1.13-.652 2.198-1.027 3.206-1.126 1.008-.098 1.89.042 2.648.422.757.38 1.35.94 1.777 1.681.382.66.59 1.292.626 1.895.036.602-.024 1.142-.179 1.618a18.76 18.76 0 0 1-.696 1.756c-.394.808-.645 1.473-.751 1.997-.107.523-.002 1.059.314 1.607l.35.604-3.486 2.012-.432-.749c-.438-.757-.69-1.466-.76-2.124-.068-.66-.022-1.233.136-1.722.159-.49.386-1.056.681-1.699.298-.602.49-1.089.577-1.46a1.456 1.456 0 0 0-.178-1.09c-.251-.436-.596-.688-1.034-.758-.438-.07-.923.05-1.455.357-1.017.587-1.677 1.624-1.98 3.11l-3.534-.474c.473-2.573 1.863-4.525 4.17-5.857zm6.87 13.632a2.422 2.422 0 0 1 1.907-.246c.674.18 1.183.568 1.528 1.164.353.613.44 1.256.258 1.93a2.422 2.422 0 0 1-1.167 1.528 2.422 2.422 0 0 1-1.906.246 2.449 2.449 0 0 1-1.542-1.189 2.417 2.417 0 0 1-.245-1.905 2.422 2.422 0 0 1 1.167-1.528z" fill="#C2E8F2"/><path d="M482.05 178.05a3.276 3.276 0 0 1-3.278 3.273 3.274 3.274 0 1 1 0-6.547 3.277 3.277 0 0 1 3.278 3.274zM118.537 13.403a2.738 2.738 0 0 1-2.74 2.736 2.737 2.737 0 1 1 0-5.473 2.738 2.738 0 0 1 2.74 2.737zM121.33 87.788a3.59 3.59 0 0 1-3.592 3.587 3.59 3.59 0 0 1-3.591-3.587 3.59 3.59 0 0 1 3.591-3.587 3.59 3.59 0 0 1 3.591 3.587zM386.308 32.438a3.364 3.364 0 0 1-3.367 3.362 3.365 3.365 0 0 1-3.366-3.362 3.365 3.365 0 0 1 3.366-3.362 3.364 3.364 0 0 1 3.367 3.362z" stroke="#C2E8F2" stroke-width="3.992"/><path d="M223.16 34.884v10.933M217.688 40.35h10.947M195.023 143.312v10.934M189.55 148.78h10.947M41.866 189.358v10.934M36.393 194.824h10.946M385.12 153.103l-6.715 6.708M158.898 295.237l-6.717 6.708" stroke="#C2E8F2" stroke-width="3.992" stroke-linecap="round"/><path d="M107.114 118.705c0 19.505-15.83 35.32-35.36 35.32s-35.36-15.815-35.36-35.32c0-19.507 15.83-35.32 35.36-35.32 19.529 0 35.36 15.814 35.36 35.32" fill="#E9EAEB"/><path d="M90.474 118.705c0 10.327-8.38 18.699-18.72 18.699-10.339 0-18.722-8.372-18.722-18.7 0-10.326 8.382-18.698 18.721-18.698 10.34 0 18.721 8.372 18.721 18.699" fill="#FFF"/><path d="M71.754 156.144c-20.669 0-37.484-16.796-37.484-37.44a37.303 37.303 0 0 1 5.68-19.82 2.112 2.112 0 0 1 1.801-.997c.397 0 .785.112 1.122.323.481.3.817.769.944 1.321.127.551.031 1.12-.27 1.6a33.085 33.085 0 0 0-5.032 17.574c0 18.307 14.91 33.2 33.239 33.2a33.276 33.276 0 0 0 21.418-7.811 2.118 2.118 0 0 1 2.99.253c.365.434.54.982.493 1.546a2.103 2.103 0 0 1-.746 1.44 37.537 37.537 0 0 1-24.155 8.811M101.756 139.523c-.396 0-.784-.112-1.122-.323a2.113 2.113 0 0 1-.944-1.32 2.107 2.107 0 0 1 .269-1.6 33.083 33.083 0 0 0 5.033-17.575c0-18.307-14.91-33.201-33.239-33.201a33.288 33.288 0 0 0-21.419 7.811 2.121 2.121 0 0 1-3.482-1.798 2.11 2.11 0 0 1 .746-1.441 37.538 37.538 0 0 1 24.155-8.81c20.668 0 37.484 16.794 37.484 37.438a37.323 37.323 0 0 1-5.678 19.822 2.117 2.117 0 0 1-1.803.997" fill="#4C7B93"/><path d="M71.754 102.125c-9.153 0-16.6 7.438-16.6 16.58s7.447 16.58 16.6 16.58c9.152 0 16.599-7.438 16.599-16.58s-7.447-16.58-16.6-16.58m0 37.397c-11.492 0-20.842-9.338-20.842-20.817 0-11.48 9.35-20.818 20.843-20.818s20.843 9.339 20.843 20.818c0 11.48-9.35 20.817-20.843 20.817" fill="#4C7B93"/><path d="M175.718 212.831v-12.165c0-18.525-15.035-33.545-33.584-33.545-18.547 0-33.584 15.019-33.584 33.545v5.131c-15.883 2.663-27.986 16.451-27.986 33.073v45.656c0 18.525 15.036 33.544 33.583 33.544 13.003 0 24.273-7.386 29.852-18.182a33.452 33.452 0 0 0 20.523 7.001c18.548 0 33.585-15.018 33.585-33.545V244.46c0-14.604-9.347-27.023-22.39-31.629" fill="#B3DCB0"/><path d="M142.013 184.307a1.996 1.996 0 0 1-1.996-1.994v-.266a1.996 1.996 0 0 1 3.992 0v.266c0 1.1-.894 1.994-1.996 1.994M154.323 190.492a1.996 1.996 0 0 1-1.996-1.994v-.267a1.996 1.996 0 0 1 3.992 0v.267c0 1.1-.894 1.994-1.996 1.994M158.926 203.915a1.996 1.996 0 0 1-1.996-1.994v-.266a1.996 1.996 0 0 1 3.992 0v.266c0 1.1-.894 1.994-1.996 1.994" fill="#4C7B93"/><path d="M197.14 238.654a2.196 2.196 0 0 1-2.136-1.678c-2.522-10.282-10.006-18.534-20.02-22.072a2.203 2.203 0 0 1-1.47-2.073v-12.165c0-17.284-14.076-31.345-31.38-31.345-17.303 0-31.382 14.061-31.382 31.345v5.13c0 1.08-.773 1.991-1.838 2.17-8.18 1.372-15.37 5.848-20.245 12.603-.42.581-1.07.914-1.79.914a2.202 2.202 0 0 1-1.784-3.487c4.908-6.795 11.743-11.515 19.77-13.65l1.483-.395v-3.284c0-19.71 16.053-35.744 35.786-35.744 19.732 0 35.785 16.034 35.785 35.744v10.62l1.186.526c10.172 4.52 17.526 13.312 20.176 24.118a2.2 2.2 0 0 1-2.142 2.723" fill="#4C7B93"/><path d="M281.883 231.863v-12.165c0-18.526-15.035-33.545-33.584-33.545-18.547 0-33.584 15.019-33.584 33.545v5.131c-15.882 2.663-27.986 16.451-27.986 33.071v45.658c0 18.525 19.051 4.976 37.6 4.976 13.002 0 23.034 13.15 28.614 2.354 5.676 4.385 12.776.08 20.508.08 18.547 0 30.82-.066 30.82-18.592v-28.885c0-14.605-9.346-27.022-22.388-31.628" fill="#99D885"/><path d="M248.179 203.338a1.996 1.996 0 0 1-1.996-1.994v-.266a1.996 1.996 0 0 1 3.992 0v.266c0 1.1-.894 1.994-1.996 1.994M260.488 209.522a1.996 1.996 0 0 1-1.996-1.993v-.267a1.996 1.996 0 0 1 3.993 0v.267c0 1.1-.895 1.993-1.997 1.993M265.09 222.947a1.996 1.996 0 0 1-1.995-1.994v-.266a1.996 1.996 0 0 1 3.992 0v.266c0 1.1-.893 1.994-1.996 1.994" fill="#4C7B93"/><path d="M303.305 257.685a2.196 2.196 0 0 1-2.135-1.677c-2.522-10.283-10.006-18.534-20.021-22.072a2.203 2.203 0 0 1-1.468-2.073v-12.166c0-17.283-14.077-31.344-31.38-31.344-17.305 0-31.383 14.061-31.383 31.344v5.131c0 1.079-.773 1.991-1.838 2.17-8.18 1.371-15.37 5.847-20.245 12.602-.42.582-1.07.915-1.79.915a2.202 2.202 0 0 1-1.784-3.487c4.907-6.795 11.743-11.516 19.77-13.65l1.483-.395v-3.285c0-19.71 16.053-35.744 35.786-35.744 19.732 0 35.785 16.035 35.785 35.744v10.62l1.186.527c10.172 4.52 17.526 13.311 20.176 24.118a2.2 2.2 0 0 1-2.142 2.722" fill="#4C7B93"/><path d="M86.16 296.366v21.704H254.08c0-48.2-48.739-81.16-93.545-63.259l-63.368 25.317a17.488 17.488 0 0 0-11.005 16.238" fill="#6BC74D"/><path d="M13.396 253.778v64.292h106.35v-47.52c0-13.894-11.278-25.158-25.189-25.158-3.182 0-6.223.596-9.027 1.67-3.155-16.86-17.955-29.624-35.75-29.624-20.095 0-36.384 16.27-36.384 36.34" fill="#99D885"/><path d="M7.8 318.07h246.279c0-9.61-7.105-17.74-16.637-19.038L57.714 274.553C31.31 270.956 7.8 291.456 7.8 318.07" fill="#6BC74D"/><path d="M63.772 318.07h190.307c0-9.61-7.105-17.74-16.637-19.038L106.43 281.188c-21.928-2.986-42 13.485-42.64 35.58-.013.433-.02.866-.02 1.302" fill="#99D885"/><path d="M125.342 318.07h128.736c0-9.61-7.105-17.74-16.637-19.038l-78.05-10.63c-17.85-2.432-33.893 11.288-34.047 29.281-.002.129-.002.258-.002.387" fill="#6BC74D"/><path d="M192.509 318.07h61.57c0-9.61-7.106-17.74-16.637-19.038l-19.915-2.712c-13.102-1.785-24.937 8.273-25.016 21.48-.002.09-.002.18-.002.27" fill="#99D885"/><path d="M49.778 219.637c-18.847 0-34.18 15.315-34.18 34.14v35.226l3.412-3.433a46.199 46.199 0 0 1 38.999-13.197l59.533 8.11v-9.934c0-12.66-10.311-22.958-22.987-22.958-2.828 0-5.6.513-8.237 1.524a2.178 2.178 0 0 1-.788.147 2.2 2.2 0 0 1-2.164-1.796c-3.018-16.125-17.142-27.829-33.588-27.829zM164.523 320.27c-1.214 0-2.201-.986-2.201-2.2 0-1.212.987-2.198 2.2-2.198h25.811l.265-1.684a23.464 23.464 0 0 1 4.266-10.27 2.183 2.183 0 0 1 1.784-.906c.466 0 .912.144 1.292.42a2.204 2.204 0 0 1 .486 3.074 19.213 19.213 0 0 0-3.19 6.912l-.581 2.454h57.29l-.751-2.555c-1.895-6.45-7.41-11.202-14.05-12.105l-179.728-24.48a41.788 41.788 0 0 0-33.112 9.907 41.588 41.588 0 0 0-14.07 27.028l-.233 2.205h51.58l.173-1.805c.944-9.895 5.664-18.99 13.288-25.61a2.205 2.205 0 0 1 3.642 1.813 2.181 2.181 0 0 1-.753 1.506c-6.526 5.668-10.682 13.432-11.701 21.864l-.27 2.232h57.198l.21-1.757c.821-6.84 3.772-13.107 8.537-18.126.42-.441.987-.685 1.598-.685.566 0 1.104.214 1.515.604.428.403.67.95.686 1.537a2.186 2.186 0 0 1-.604 1.572 27.338 27.338 0 0 0-7.206 14.545l-.371 2.309h20.208c1.214 0 2.202.986 2.202 2.199 0 1.213-.988 2.199-2.202 2.199H2.2a2.202 2.202 0 0 1-2.201-2.2c0-1.212.988-2.198 2.203-2.2h3.411l.159-1.82a45.812 45.812 0 0 1 5.189-17.558l.232-.438v-42.277c0-21.25 17.31-38.538 38.584-38.538 17.05 0 31.865 10.916 36.867 27.163l.535 1.736 1.78-.37a27.433 27.433 0 0 1 5.596-.575c15.103 0 27.39 12.272 27.39 27.356v10.534l115.792 15.77a21.189 21.189 0 0 1 7.958 2.767l4.558 2.697-1.644-5.03c-4.507-13.783-13.406-25.475-25.736-33.812-11.072-7.488-23.798-11.446-36.8-11.446-8.39 0-16.709 1.623-24.722 4.825l-25.318 10.115a2.19 2.19 0 0 1-2.86-1.224 2.181 2.181 0 0 1 .02-1.683c.231-.54.659-.957 1.205-1.176l25.317-10.116a70.246 70.246 0 0 1 26.163-5.039c14.11 0 27.756 4.185 39.464 12.102 18.313 12.383 29.547 32.124 30.82 54.16l.11 1.879h3.404c1.214 0 2.201.986 2.201 2.199 0 1.213-.988 2.199-2.202 2.2h-95.153z" fill="#4C7B93"/><path d="M382.087 162.47c.313-.047.633-.068.958-.068a6.53 6.53 0 0 1 6.534 6.526 6.53 6.53 0 0 1-6.238 6.521l-1.254-12.979zM325.547 162.47a6.732 6.732 0 0 0-.958-.068c-3.61 0-6.538 2.921-6.538 6.526a6.532 6.532 0 0 0 6.241 6.521l1.255-12.979z" fill="#F4D3C3"/><path d="M323.284 216.4v25.397h61.061v-25.398c0-9.556-7.756-17.3-17.324-17.3h-26.415c-9.566 0-17.322 7.744-17.322 17.3" fill="#C2E8F2"/><path d="M373.672 216.4v25.397h10.672v-25.398c0-9.556-7.755-17.3-17.321-17.3h-10.674c9.567 0 17.322 7.744 17.323 17.3" fill="#46BDFA"/><path d="M344.362 203.662l-11.498-8.343a21.169 21.169 0 0 1-8.64-19.168l1.994-20.612c1.373-14.197 13.317-25.03 27.598-25.03 14.279 0 26.223 10.833 27.596 25.03l1.994 20.612a21.165 21.165 0 0 1-8.64 19.168l-11.498 8.343a16.095 16.095 0 0 1-18.906 0" fill="#FDE9DE"/><path d="M373.257 147.607c-.512-8.706-10.344-16.881-19.027-17.092 14.097.206 25.822 10.965 27.183 25.023l1.991 20.614a21.159 21.159 0 0 1-8.637 19.165l-11.499 8.344a15.997 15.997 0 0 1-4.12 2.157 9.57 9.57 0 0 0 2.11-1.875l12.017-14.749a12.774 12.774 0 0 0 2.976-8.981l-2.994-32.606z" fill="#F4D3C3"/><path d="M322.08 156.514h19.69l1.733 6.995h20.625l1.73-6.995h19.693l-1.685-8.393h-2.462c0-13.253-9.366-24.318-21.847-26.958v-4.375h-11.484v4.375a27.522 27.522 0 0 0-13.767 7.473c-4.994 4.987-8.081 11.875-8.081 19.485h-2.461l-1.684 8.393z" fill="#F26105"/><path d="M359.556 116.787v4.375c12.48 2.638 21.847 13.707 21.847 26.959h2.46l1.688 8.393h-8.403l-1.684-8.393H373c0-13.252-9.366-24.32-21.844-26.959v-4.375h8.4z" fill="#CC4C05"/><path d="M326.123 156.513h6.123v19.864l-7.375 7.369h-.003a21.092 21.092 0 0 1-.644-7.597l1.899-19.636zM375.148 156.513h6.358l1.899 19.637a21.2 21.2 0 0 1-.66 7.657l-.222-.061-7.375-7.368v-19.865z" fill="#324C5E"/><path d="M364.24 174.152c0 1.158.941 2.097 2.102 2.097 1.16 0 2.1-.939 2.1-2.097v-3.357a2.1 2.1 0 0 0-2.1-2.098 2.1 2.1 0 0 0-2.101 2.098v3.357zM339.304 170.795v3.357a2.1 2.1 0 0 0 4.2 0v-3.356a2.1 2.1 0 0 0-2.1-2.099c-1.161 0-2.1.94-2.1 2.098M321.24 215.39v26.407a2.1 2.1 0 0 0 2.1 2.098h61.062a2.1 2.1 0 0 0 2.101-2.098V215.39c0-6.204-3.174-11.831-8.49-15.055a2.103 2.103 0 0 0-2.885.704 2.097 2.097 0 0 0 .706 2.883c4.05 2.457 6.468 6.744 6.468 11.468v24.308h-26.33v-22.77l9.15 6.49a2.1 2.1 0 0 0 3.283-1.337l2.493-13.79a2.102 2.102 0 0 0-4.135-.746l-1.905 10.539-9.77-6.933a2.101 2.101 0 0 0-2.433 0l-9.769 6.933-1.906-10.539a2.099 2.099 0 0 0-2.44-1.692 2.098 2.098 0 0 0-1.694 2.438l2.493 13.79a2.099 2.099 0 0 0 2.067 1.725c.43 0 .856-.13 1.218-.388l9.148-6.492v22.772h-26.33V215.39c0-4.723 2.42-9.01 6.471-11.468a2.097 2.097 0 0 0 .706-2.883 2.103 2.103 0 0 0-2.886-.704c-5.316 3.225-8.491 8.852-8.492 15.055M359.195 177.65v-6.583a2.1 2.1 0 0 0-2.101-2.098 2.1 2.1 0 0 0-2.101 2.098v6.583a1.12 1.12 0 0 1-2.24 0v-6.583a2.1 2.1 0 0 0-2.102-2.098c-1.16 0-2.1.939-2.1 2.098v6.583a5.325 5.325 0 0 0 5.322 5.315 5.326 5.326 0 0 0 5.322-5.315" fill="#4C7B93"/><path d="M387.536 168.928a4.42 4.42 0 0 1-2.287 3.877l-.781-8.09a4.437 4.437 0 0 1 3.068 4.213zm-10.23-10.316h2.35l1.715 17.74a18.82 18.82 0 0 1 .033 3.25l-4.098-4.094v-16.897zm1.967-12.59h-17.557v-22.124c9.703 3.138 16.704 11.926 17.557 22.124zm-29.041-27.136h7.282v27.136h-7.282v-27.136zm-22.145 39.725h2.116v16.897l-3.88 3.874a18.974 18.974 0 0 1 .05-3.03l1.714-17.741zm-4.81 6.107l-.782 8.086a4.418 4.418 0 0 1-2.285-3.876 4.434 4.434 0 0 1 3.067-4.21zm39.956-6.106l-.692 2.798h-17.337l-.691-2.798h18.72zm-38.532-4.197l.843-4.196h56.66l.84 4.196h-58.343zm2.607 29.92l6.48-6.475c.395-.394.616-.927.616-1.483V158.61h5.78l1.336 5.4a2.101 2.101 0 0 0 2.04 1.595h20.625a2.1 2.1 0 0 0 2.04-1.595l1.336-5.4h5.544v17.766a2.1 2.1 0 0 0 .615 1.483l6.656 6.651a19.156 19.156 0 0 1-6.79 9.108l-11.497 8.345a13.962 13.962 0 0 1-16.438 0l-11.496-8.345a19.14 19.14 0 0 1-6.847-9.283zm64.43-15.407c0-4.437-3.373-8.102-7.691-8.574l-.169-1.743h1.73a2.099 2.099 0 0 0 2.062-2.51l-1.685-8.392a2.1 2.1 0 0 0-2.06-1.687h-.443a29.693 29.693 0 0 0-6.638-16.691 29.827 29.827 0 0 0-15.127-9.81v-2.733a2.1 2.1 0 0 0-2.101-2.099h-11.483a2.1 2.1 0 0 0-2.102 2.099v2.725a29.354 29.354 0 0 0-9.961 4.874 2.099 2.099 0 1 0 2.521 3.356 25.285 25.285 0 0 1 7.44-3.854v22.134H328.47a25.266 25.266 0 0 1 4.265-12.133c.65-.96.397-2.265-.565-2.913a2.103 2.103 0 0 0-2.917.563 29.45 29.45 0 0 0-4.994 14.482h-.437a2.1 2.1 0 0 0-2.059 1.686l-1.686 8.393a2.101 2.101 0 0 0 2.06 2.511h1.73l-.168 1.743c-4.319.474-7.69 4.138-7.69 8.573a8.61 8.61 0 0 0 6.098 8.248c-.106 2.4.157 4.79.792 7.12 1.39 5.1 4.51 9.616 8.786 12.719l11.498 8.345a18.159 18.159 0 0 0 21.376 0l11.498-8.346a23.362 23.362 0 0 0 8.77-12.65 23.2 23.2 0 0 0 .81-7.187 8.609 8.609 0 0 0 6.1-8.25zM340.568 227.434h-8.963a2.1 2.1 0 1 0 0 4.197h8.963a2.099 2.099 0 1 0 0-4.197M376.14 227.434h-8.963a2.1 2.1 0 1 0 0 4.197h8.963a2.099 2.099 0 1 0 0-4.197" fill="#4C7B93"/><path d="M353.786 173.013c0 7.584-6.156 13.734-13.75 13.734-7.595 0-13.75-6.15-13.75-13.734 0-7.585 6.155-13.734 13.75-13.734 7.594 0 13.75 6.15 13.75 13.734" fill="#E9EAEB"/><path d="M353.786 173.013c0 7.584-6.156 13.734-13.75 13.734-7.595 0-13.75-6.15-13.75-13.734 0-7.585 6.155-13.734 13.75-13.734 7.594 0 13.75 6.15 13.75 13.734z" stroke="#4C7B93" stroke-width="3.992"/><path d="M381.2 173.013c0 7.584-6.156 13.734-13.749 13.734-7.595 0-13.752-6.15-13.752-13.734 0-7.585 6.157-13.734 13.752-13.734 7.593 0 13.75 6.15 13.75 13.734" fill="#E9EAEB"/><path d="M381.2 173.013c0 7.584-6.156 13.734-13.749 13.734-7.595 0-13.752-6.15-13.752-13.734 0-7.585 6.157-13.734 13.752-13.734 7.593 0 13.75 6.15 13.75 13.734z" stroke="#4C7B93" stroke-width="3.992"/><path d="M346.473 194.824h14.683" stroke="#4C7B93" stroke-width="3.992" stroke-linecap="round"/><path d="M331.338 161.379c-6.117-4.887-13.28-5.17-19.104.065L290.768 197.1a8.627 8.627 0 0 0 2.24 11.37l29.988 22.34v-20.818l-15.053-10.25 23.395-38.363z" fill="#C2E8F2"/><path d="M322.227 176.32l9.112-14.94c-6.118-4.889-13.281-5.17-19.105.063l-4.072 6.766 14.065 8.11z" fill="#FDE9DE"/><path d="M331.338 161.379c-6.117-4.887-13.28-5.17-19.104.065L290.768 197.1a8.627 8.627 0 0 0 2.24 11.37l29.988 22.34v-20.818l-15.053-10.25 23.395-38.363z" stroke="#4C7B93" stroke-width="3.992" stroke-linecap="round" stroke-linejoin="round"/><path d="M308.799 167.152l13.744 8.651" fill="#C2E8F2"/><path d="M308.799 167.152l13.744 8.651" stroke="#4C7B93" stroke-width="3.992" stroke-linecap="round" stroke-linejoin="round"/><path d="M375.957 161.379c6.117-4.887 13.28-5.17 19.104.065l21.466 35.656a8.627 8.627 0 0 1-2.24 11.37l-29.988 22.34v-20.818l15.053-10.25-23.395-38.363z" fill="#46BDFA"/><path d="M385.068 176.32l-9.111-14.94c6.117-4.889 13.28-5.17 19.104.063l4.072 6.766-14.065 8.11z" fill="#F4D3C3"/><path d="M375.957 161.379c6.117-4.887 13.28-5.17 19.104.065l21.466 35.656a8.627 8.627 0 0 1-2.24 11.37l-29.988 22.34v-20.818l15.053-10.25-23.395-38.363zM399.014 168.11l-13.745 8.651" stroke="#4C7B93" stroke-width="3.992" stroke-linecap="round" stroke-linejoin="round"/><g fill="#FFF"><path d="M346.472 169.144c0 4.215-3.42 7.63-7.638 7.63-4.22 0-7.64-3.415-7.64-7.63 0-4.214 3.42-7.63 7.64-7.63 4.218 0 7.638 3.416 7.638 7.63M373.511 169.144c0 4.215-3.42 7.63-7.638 7.63-4.22 0-7.64-3.415-7.64-7.63 0-4.214 3.42-7.63 7.64-7.63 4.218 0 7.638 3.416 7.638 7.63"/></g><path d="M517.586 309.71c0-27.841-22.597-50.41-50.47-50.41-3.552 0-7.016.375-10.36 1.072-8.564-15.655-25.196-26.278-44.316-26.278-6.374 0-12.448 1.23-18.063 3.384-8.77-7.348-20.065-11.786-32.406-11.786-20.661 0-38.398 12.415-46.206 30.17-2.76-.466-5.577-.765-8.47-.765-27.874 0-50.47 22.569-50.47 50.41v12.603h260.76v-8.4z" fill="#99D885"/><path d="M286.265 271.901c2.891 0 5.71.3 8.469.766a50.622 50.622 0 0 1 12.85-17.555c-.097 0-.192-.013-.29-.013-16.794 0-31.63 8.225-40.803 20.826a50.33 50.33 0 0 1 19.774-4.024M467.115 259.3c-3.553 0-7.014.374-10.36 1.071-8.564-15.654-25.195-26.277-44.314-26.277-6.376 0-12.45 1.229-18.066 3.382-8.769-7.347-20.063-11.785-32.405-11.785-16.832 0-31.718 8.242-40.883 20.896a50.205 50.205 0 0 1 19.854-4.092c12.341 0 23.637 4.437 32.406 11.784 5.615-2.153 11.69-3.383 18.063-3.383 19.121 0 35.752 10.623 44.317 26.279a50.599 50.599 0 0 1 10.36-1.074c25 0 45.701 18.177 49.712 42.009h21.785v-8.402c.001-27.839-22.595-50.409-50.469-50.409" fill="#6BC74D"/><path d="M307.295 257.257c-26.637 0-48.307 21.645-48.307 48.25v10.445h256.435v-6.242c0-26.605-21.67-48.251-48.308-48.251-3.311 0-6.649.346-9.919 1.027l-1.569.327-.769-1.406a48.334 48.334 0 0 0-42.417-25.154c-5.867 0-11.684 1.09-17.29 3.24l-1.188.456-.978-.819a48.37 48.37 0 0 0-31.014-11.279c-19.153 0-36.512 11.336-44.226 28.88l-.679 1.543-1.663-.283c-2.918-.494-5.57-.734-8.108-.734zm-52.632 63.013v-14.762c0-28.986 23.61-52.568 52.63-52.568 1.88 0 3.774.116 5.796.355l1.38.164.632-1.237c9.042-17.695 27.002-28.687 46.869-28.687 11.486 0 22.84 3.847 31.974 10.832l.843.645 1.007-.337a52.224 52.224 0 0 1 16.646-2.738c18.345 0 35.071 9.303 44.744 24.884l.694 1.12 1.303-.199a53.054 53.054 0 0 1 7.933-.6c14.035 0 27.247 5.473 37.199 15.413 9.953 9.94 15.433 23.137 15.433 37.155v10.56H254.663z" fill="#4C7B93"/></g></svg>