<svg width="44" height="44" viewBox="0 0 44 44" xmlns="http://www.w3.org/2000/svg"><title>question</title><path d="M22 44C9.85 44 0 34.15 0 22S9.85 0 22 0s22 9.85 22 22-9.85 22-22 22zm.23-33c-2.98 0-5.39 1.09-7.23 3.27l3.33 2.64c1.06-1.16 2.17-1.74 3.33-1.74.58 0 1.025.125 1.335.375.31.25.465.605.465 1.065 0 .38-.125.705-.375.975s-.655.595-1.215.975c-.62.42-1.13.82-1.53 1.2-.4.38-.745.9-1.035 1.56-.29.66-.435 1.48-.435 2.46v.75h4.8v-.57c0-.64.18-1.16.54-1.56.36-.4.93-.88 1.71-1.44.66-.44 1.2-.85 1.62-1.23.42-.38.775-.87 1.065-1.47.29-.6.435-1.32.435-2.16 0-.94-.255-1.795-.765-2.565s-1.28-1.385-2.31-1.845c-1.03-.46-2.275-.69-3.735-.69zm-.93 16.14c-.8 0-1.48.285-2.04.855-.56.57-.84 1.255-.84 2.055 0 .8.28 1.48.84 2.04.56.56 1.24.84 2.04.84s1.485-.28 2.055-.84c.57-.56.855-1.24.855-2.04s-.285-1.485-.855-2.055a2.802 2.802 0 0 0-2.055-.855z" fill="#AFEBAE" fill-rule="evenodd"/></svg>