<?xml version="1.0" encoding="UTF-8"?>
<svg width="16px" height="16px" viewBox="0 0 16 16" version="1.1" xmlns="http://www.w3.org/2000/svg" xmlns:xlink="http://www.w3.org/1999/xlink">
    <!-- Generator: Sketch 50.2 (55047) - http://www.bohemiancoding.com/sketch -->
    <title>ic_2</title>
    <desc>Created with Sketch.</desc>
    <defs></defs>
    <g id="Contractor-Branded-Page" stroke="none" stroke-width="1" fill="none" fill-rule="evenodd">
        <g id="Contractor_Branded_Page" transform="translate(-645.000000, -441.000000)">
            <g id="Refine-Results" transform="translate(151.000000, 320.000000)">
                <g id="Process" transform="translate(264.000000, 116.000000)">
                    <g id="Group-33" transform="translate(230.000000, 0.000000)">
                        <g id="ic_2" transform="translate(0.000000, 5.000000)">
                            <circle id="Oval-2" fill="#4C7B93" cx="8" cy="8" r="8"></circle>
                            <path d="M7.784,4 C8.36800292,4 8.8699979,4.10399896 9.29,4.312 C9.7100021,4.52000104 10.0299989,4.79999824 10.25,5.152 C10.4700011,5.50400176 10.58,5.89199788 10.58,6.316 C10.58,6.74800216 10.4920009,7.15999804 10.316,7.552 C10.1399991,7.94400196 9.82800224,8.39399746 9.38,8.902 C8.93199776,9.41000254 8.28000428,10.0519961 7.424,10.828 L10.748,10.828 L10.556,12.28 L5.276,12.28 L5.276,10.936 C6.26000492,9.96799516 6.97599776,9.23800246 7.424,8.746 C7.87200224,8.25399754 8.1859991,7.84400164 8.366,7.516 C8.5460009,7.18799836 8.636,6.85200172 8.636,6.508 C8.636,6.17999836 8.54200094,5.92200094 8.354,5.734 C8.16599906,5.54599906 7.9120016,5.452 7.592,5.452 C7.30399856,5.452 7.04800112,5.51799934 6.824,5.65 C6.59999888,5.78200066 6.36400124,5.99599852 6.116,6.292 L5,5.404 C5.33600168,4.9639978 5.73799766,4.62000124 6.206,4.372 C6.67400234,4.12399876 7.19999708,4 7.784,4 Z" id="2" fill="#FFFFFF"></path>
                        </g>
                    </g>
                </g>
            </g>
        </g>
    </g>
</svg>