<?xml version="1.0" encoding="UTF-8"?>
<svg width="16px" height="16px" viewBox="0 0 16 16" version="1.1" xmlns="http://www.w3.org/2000/svg" xmlns:xlink="http://www.w3.org/1999/xlink">
    <!-- Generator: Sketch 50.2 (55047) - http://www.bohemiancoding.com/sketch -->
    <title>ic_3</title>
    <desc>Created with Sketch.</desc>
    <defs></defs>
    <g id="Contractor-Branded-Page" stroke="none" stroke-width="1" fill="none" fill-rule="evenodd">
        <g id="Contractor_Branded_Page" transform="translate(-916.000000, -440.000000)">
            <g id="Refine-Results" transform="translate(151.000000, 320.000000)">
                <g id="Process" transform="translate(264.000000, 116.000000)">
                    <g id="Group-32" transform="translate(501.000000, 0.000000)">
                        <g id="ic_3" transform="translate(0.000000, 4.000000)">
                            <circle id="Oval-2" fill="#4C7B93" cx="8" cy="8" r="8"></circle>
                            <path d="M7.916,4 C8.48400284,4 8.96999798,4.09199908 9.374,4.276 C9.77800202,4.46000092 10.0859989,4.70799844 10.298,5.02 C10.5100011,5.33200156 10.616,5.67999808 10.616,6.064 C10.616,6.55200244 10.4780014,6.95999836 10.202,7.288 C9.92599862,7.61600164 9.53600252,7.85199928 9.032,7.996 C9.57600272,8.05200028 10.0199983,8.24599834 10.364,8.578 C10.7080017,8.91000166 10.88,9.37999696 10.88,9.988 C10.88,10.4440023 10.7600012,10.8619981 10.52,11.242 C10.2799988,11.6220019 9.92600234,11.9239989 9.458,12.148 C8.98999766,12.3720011 8.43200324,12.484 7.784,12.484 C6.59999408,12.484 5.67200336,12.0760041 5,11.26 L6.02,10.264 C6.29200136,10.5360014 6.5579987,10.7339994 6.818,10.858 C7.0780013,10.9820006 7.36399844,11.044 7.676,11.044 C8.05200188,11.044 8.35599884,10.940001 8.588,10.732 C8.82000116,10.523999 8.936,10.2360018 8.936,9.868 C8.936,9.45199792 8.8260011,9.1540009 8.606,8.974 C8.3859989,8.7939991 8.0560022,8.704 7.616,8.704 L6.944,8.704 L7.148,7.396 L7.616,7.396 C7.9760018,7.396 8.25999896,7.30400092 8.468,7.12 C8.67600104,6.93599908 8.78,6.67600168 8.78,6.34 C8.78,6.04399852 8.68400096,5.81400082 8.492,5.65 C8.29999904,5.48599918 8.03600168,5.404 7.7,5.404 C7.13199716,5.404 6.60400244,5.63999764 6.116,6.112 L5.18,5.092 C5.94800384,4.36399636 6.85999472,4 7.916,4 Z" id="3" fill="#FFFFFF"></path>
                        </g>
                    </g>
                </g>
            </g>
        </g>
    </g>
</svg>