<?xml version="1.0" encoding="UTF-8"?>
<svg width="14px" height="12px" viewBox="0 0 14 12" version="1.1" xmlns="http://www.w3.org/2000/svg" xmlns:xlink="http://www.w3.org/1999/xlink">
    <!-- Generator: Sketch 50.2 (55047) - http://www.bohemiancoding.com/sketch -->
    <title>ic_envelop</title>
    <desc>Created with Sketch.</desc>
    <defs></defs>
    <g id="Contractor-Branded-Offers" stroke="none" stroke-width="1" fill="none" fill-rule="evenodd">
        <g id="Contractor_Branded_Offers_Page_320" transform="translate(-190.000000, -558.000000)">
            <g id="Refine-Results" transform="translate(16.000000, 312.000000)">
                <g id="contacts" transform="translate(16.000000, 244.000000)">
                    <g id="Contact" transform="translate(157.000000, 0.000000)">
                        <g id="ic_envelop">
                            <rect id="Rectangle" fill="#D8D8D8" opacity="0" x="0" y="0" width="16" height="16"></rect>
                            <g id="envelope" transform="translate(1.000000, 2.000000)" fill="#046DD5" fill-rule="nonzero">
                                <path d="M1.34274219,3.40451365 C1.51971094,3.52917122 2.05316016,3.89940447 2.94311719,4.51502233 C3.83310156,5.1306402 4.51489062,5.60465012 4.98851172,5.9370794 C5.04054688,5.97351861 5.15109766,6.05272953 5.32021875,6.17482134 C5.48936719,6.29699504 5.62991406,6.39572208 5.74175,6.47102978 C5.85366797,6.54631017 5.98896484,6.63076179 6.14777734,6.72424814 C6.30653516,6.81765261 6.4561875,6.88791067 6.59670703,6.93442184 C6.73725391,6.98131514 6.86735547,7.00454342 6.98703906,7.00454342 L6.99488672,7.00454342 L7.00276172,7.00454342 C7.12244531,7.00454342 7.25260156,6.98128784 7.39314844,6.93442184 C7.53361328,6.88791067 7.68340234,6.81757072 7.84202344,6.72424814 C8.00072656,6.63065261 8.13602344,6.54628288 8.24794141,6.47102978 C8.35985938,6.39572208 8.50029688,6.29699504 8.6695,6.17482134 C8.83859375,6.05262035 8.94928125,5.97351861 9.00131641,5.9370794 C9.48005078,5.60465012 10.6980234,4.76037965 12.6548516,3.40434988 C13.0347656,3.13950372 13.3521719,2.81993052 13.6071523,2.44584864 C13.8623242,2.07193052 13.9897734,1.67966998 13.9897734,1.26928536 C13.9897734,0.926347395 13.8660977,0.6327866 13.6188555,0.388630273 C13.3716406,0.144419355 13.0788437,0.022382134 12.7406562,0.022382134 L1.24903516,0.022382134 C0.8483125,0.022382134 0.539929688,0.157439206 0.323941406,0.42755335 C0.107980469,0.697722084 0,1.03541935 0,1.44061787 C0,1.76791563 0.143171875,2.12259057 0.429378906,2.50442432 C0.715558594,2.88628536 1.02011328,3.18634243 1.34274219,3.40451365 Z" id="Shape"></path>
                                <path d="M13.209,5.23827543 C11.5020938,6.39152854 10.206,7.28779653 9.32134766,7.92688834 C9.02469531,8.14500496 8.78404297,8.31527295 8.59922656,8.43728288 C8.41441016,8.55937469 8.16861719,8.68405955 7.86149219,8.81128288 C7.55447656,8.93869727 7.26835156,9.0022134 7.00287109,9.0022134 L6.99491406,9.0022134 L6.98706641,9.0022134 C6.72164062,9.0022134 6.43535156,8.93869727 6.12833594,8.81128288 C5.82132031,8.68405955 5.57536328,8.55937469 5.39060156,8.43728288 C5.20589453,8.31527295 4.96516016,8.14500496 4.66853516,7.92688834 C3.96588281,7.41259057 2.67257812,6.51626799 0.788566406,5.23827543 C0.491832031,5.04098511 0.229003906,4.81484367 0,4.56031514 L0,10.7477469 C0,11.0908486 0.122253906,11.3842457 0.366898437,11.6284293 C0.611488281,11.8726948 0.905597656,11.9947866 1.24911719,11.9947866 L12.7407656,11.9947866 C13.0842031,11.9947866 13.3782852,11.8726948 13.6229023,11.6284293 C13.8676016,11.3841638 13.9898008,11.0908759 13.9898008,10.7477469 L13.9898008,4.56031514 C13.7659648,4.80957568 13.5058164,5.03571712 13.209,5.23827543 Z" id="Shape"></path>
                            </g>
                        </g>
                    </g>
                </g>
            </g>
        </g>
    </g>
</svg>