<?xml version="1.0" encoding="UTF-8"?>
<svg width="24px" height="24px" viewBox="0 0 24 24" version="1.1" xmlns="http://www.w3.org/2000/svg" xmlns:xlink="http://www.w3.org/1999/xlink">
    <!-- Generator: Sketch 50.2 (55047) - http://www.bohemiancoding.com/sketch -->
    <title>ic_phone</title>
    <desc>Created with Sketch.</desc>
    <defs></defs>
    <g id="Contractor-Branded-Offers" stroke="none" stroke-width="1" fill="none" fill-rule="evenodd">
        <g id="Contractor_Branded_Offers_Page_1024" transform="translate(-735.000000, -1694.000000)">
            <g id="Content-Section" transform="translate(44.000000, 702.000000)">
                <g id="Card7" transform="translate(1.000000, 944.000000)">
                    <g id="Card#1">
                        <g id="Push" transform="translate(679.000000, 44.000000)">
                            <g id="Phone" transform="translate(11.000000, 0.000000)">
                                <g id="ic_phone" transform="translate(0.000000, 4.000000)">
                                    <rect id="Rectangle-4" fill="#D8D8D8" opacity="0" x="0" y="0" width="24" height="24"></rect>
                                    <path d="M23.9489464,18.5955686 C23.8810615,18.3910308 23.449153,18.0897166 22.6535197,17.6923425 C22.4379834,17.5670885 22.1308591,17.3968791 21.7334604,17.1809383 C21.3357034,16.9649974 20.9746652,16.7660119 20.6510025,16.5841607 C20.3266831,16.4023692 20.0228427,16.2262493 19.7389438,16.0560399 C19.6935677,16.0219503 19.5515287,15.9226665 19.3128865,15.7575317 C19.0740054,15.5928746 18.8725596,15.4706653 18.7074743,15.3909637 C18.5427473,15.3117396 18.380707,15.2718589 18.2215922,15.2718589 C17.9943537,15.2718589 17.7105145,15.4338891 17.3697164,15.7575317 C17.0289184,16.0815922 16.7163012,16.4335931 16.4323426,16.814609 C16.1483243,17.1954458 15.8471109,17.5474466 15.5292396,17.871328 C15.2108907,18.1953288 14.9493217,18.35718 14.74501,18.35718 C14.6424362,18.35718 14.5145474,18.3285829 14.3612838,18.2721649 C14.2080799,18.2153886 14.091535,18.1667318 14.0115299,18.1275078 C13.9322412,18.087448 13.7961727,18.0081642 13.6028468,17.8884624 C13.4091627,17.7691188 13.3014543,17.7037455 13.2787662,17.6923425 C11.7219495,16.8285195 10.386759,15.8398603 9.27295583,14.7266038 C8.15951093,13.6126906 7.17067109,12.2777022 6.30703334,10.7208028 C6.29568932,10.6980565 6.23019256,10.5900562 6.110961,10.3969811 C5.99155032,10.2037269 5.9119631,10.0675474 5.87219934,9.98778604 C5.83243559,9.90832316 5.78413397,9.79178555 5.72741389,9.63841204 C5.67069382,9.48503852 5.64221437,9.35727701 5.64221437,9.25488869 C5.64221437,9.05047027 5.80419496,8.78897709 6.12809643,8.47076734 C6.4519382,8.1527367 6.80431912,7.85148222 7.18488096,7.56760091 C7.56574132,7.28371961 7.91776401,6.97112182 8.24172519,6.63034485 C8.56556695,6.28938878 8.72748784,6.00544777 8.72748784,5.77822333 C8.72748784,5.61923786 8.68772408,5.4571479 8.60825627,5.29243108 C8.52872876,5.12735604 8.40657163,4.9259227 8.24172519,4.68717584 C8.07681904,4.44854838 7.97740965,4.30663758 7.94325819,4.26096582 C7.77297856,3.97708452 7.59702692,3.67314347 7.41498534,3.34926206 C7.23294376,3.02544036 7.03424438,2.66448424 6.81823046,2.26681161 C6.60239566,1.86931808 6.43205632,1.56239195 6.30691393,1.34651081 C5.90939577,0.551225252 5.60830174,0.119224177 5.40369154,0.0512837097 C5.32410432,0.0171940726 5.20469364,0 5.04575802,0 C4.73875316,0 4.33824974,0.056716559 3.84394922,0.170507887 C3.3494696,0.28412011 2.96036989,0.403284585 2.67623218,0.528478927 C2.10801645,0.766986983 1.50576868,1.46012304 0.869309756,2.60764828 C0.289750017,3.67559123 0,4.73260879 0,5.77792482 C0,6.08449275 0.0198818783,6.38276215 0.059645635,6.67279272 C0.0994093917,6.96252478 0.170458747,7.28927186 0.272853406,7.65297426 C0.375068948,8.01655726 0.457522023,8.28664748 0.519854399,8.46252851 C0.582246479,8.63852895 0.698731599,8.95381332 0.869250051,9.40850102 C1.03952968,9.86306931 1.14192434,10.1413387 1.17601609,10.2436076 C1.57371336,11.357282 2.04532585,12.3514934 2.59073413,13.2265404 C3.4881054,14.6809917 4.71272163,16.1841 6.26386638,17.735268 C7.81507082,19.2863166 9.31797365,20.5107973 10.7726346,21.4084712 C11.6476163,21.953786 12.6422476,22.4253095 13.7558119,22.8232807 C13.8581469,22.8571912 14.1364334,22.9593407 14.5908508,23.1302068 C15.0454473,23.3005953 15.3608706,23.4170732 15.5368819,23.4795808 C15.712953,23.5421481 15.9831196,23.6246558 16.3464266,23.7270441 C16.7105098,23.8294324 17.0369786,23.9004774 17.3267286,23.9405372 C17.6166577,23.9797611 17.9150053,24 18.2216519,24 C19.266973,24 20.3241158,23.7100888 21.3923041,23.1306247 C22.539781,22.494444 23.2327809,21.8921142 23.4714231,21.3235157 C23.5969237,21.0396941 23.7157971,20.6504991 23.8294163,20.1560501 C23.9433938,19.66184 23.9999945,19.261421 23.9999945,18.9544949 C24.0003527,18.7949124 23.9832173,18.6758077 23.9489464,18.5955686 Z" id="Shape" fill="#F96232" fill-rule="nonzero"></path>
                                </g>
                            </g>
                        </g>
                    </g>
                </g>
            </g>
        </g>
    </g>
</svg>