<?xml version="1.0" encoding="UTF-8"?>
<svg width="520px" height="321px" viewBox="0 0 520 321" version="1.1" xmlns="http://www.w3.org/2000/svg" xmlns:xlink="http://www.w3.org/1999/xlink">
    <!-- Generator: sketchtool 50.2 (55047) - http://www.bohemiancoding.com/sketch -->
    <title>271A44B3-8C3F-42F3-B1D8-C17605DD6C49</title>
    <desc>Created with sketchtool.</desc>
    <defs></defs>
    <g id="404" stroke="none" stroke-width="1" fill="none" fill-rule="evenodd">
        <g id="Enhancify_404" transform="translate(-460.000000, -440.000000)">
            <g id="image_404" transform="translate(460.000000, 439.000000)">
                <g id="Group">
                    <g id="Group-9" transform="translate(23.953935, 0.267170)" fill-opacity="0.1">
                        <path d="M390.143324,60.6193412 C459.479985,75.9337808 477.551232,179.58588 462.226702,248.805911 C446.901175,318.025942 393.934035,317.993044 324.597374,302.678604 C255.259716,287.363168 186.212499,236.456264 201.537029,167.235236 C216.863555,98.0162019 320.805666,45.3039046 390.143324,60.6193412" id="Fill-1" fill="#46BDFA"></path>
                        <path d="M161.559409,114.719927 C230.897067,130.035363 266.56747,187.256658 251.240944,256.476689 C235.916415,325.69672 189.392883,319.144069 120.055225,303.828633 C50.7185643,288.514193 -12.7094587,245.119958 2.6160691,175.89893 C17.9405988,106.679896 92.2227486,99.4054873 161.559409,114.719927" id="Fill-3" fill="#17BD52"></path>
                        <path d="M195.928914,2.69572817 C274.72638,20.0996786 362.734134,68.3039759 345.291678,147.087307 C327.849221,225.869641 291.050987,316.405474 212.25352,299.000527 C133.456054,281.59558 22.2030019,244.63935 39.6454587,165.857016 C57.0889136,87.0736848 117.131447,-14.7092192 195.928914,2.69572817" id="Fill-5" fill="#46BDFA"></path>
                        <path d="M478.72228,284.703428 C483.807989,279.68675 486.350843,269.049119 486.350843,252.790536 C486.350843,220.590686 454.924046,190.66248 418.387309,190.66248 C413.694334,190.66248 408.966426,191.15196 404.338326,192.116963 L399.877904,193.047075 L397.693106,189.05248 C385.672223,167.077725 362.653489,153.425124 337.616637,153.425124 C329.31061,153.425124 321.073451,154.970326 313.131724,158.015867 L309.755217,159.310846 L306.982549,156.988059 C294.686196,146.686053 279.086196,141.014666 263.058019,141.014666 C235.93418,141.014666 211.347463,157.069806 200.421474,181.917638 L198.49418,186.298035 L193.769267,185.498518 C189.622242,184.7957 185.867463,184.454759 182.285351,184.454759 C144.5599,184.454759 113.867923,215.110555 113.867923,252.790536 L113.867923,265.273768 L478.72228,284.703428 Z" id="Fill-7" fill="#17BD52"></path>
                    </g>
                    <path d="M341.335785,77.5691022 L334.619701,84.2772693" id="Stroke-10" stroke="#C2E8F2" stroke-width="3.99232246" stroke-linecap="round"></path>
                    <path d="M182.614618,84.2777678 L175.898534,77.5696006" id="Stroke-11" stroke="#C2E8F2" stroke-width="3.99232246" stroke-linecap="round"></path>
                    <g id="Group-158" transform="translate(0.000000, 11.233115)">
                        <path d="M431.047063,117.949098 C431.047063,121.31664 428.314319,124.046163 424.942802,124.046163 C421.571286,124.046163 418.838541,121.31664 418.838541,117.949098 C418.838541,114.581557 421.571286,111.852033 424.942802,111.852033 C428.314319,111.852033 431.047063,114.581557 431.047063,117.949098 Z" id="Stroke-12" stroke="#C2E8F2" stroke-width="3.99232246"></path>
                        <path d="M295.430864,52.4065467 C295.48975,52.7355251 295.519693,53.0744724 295.519693,53.4203981 C295.519693,56.5885591 292.947639,59.1575808 289.774741,59.1575808 C286.601843,59.1575808 284.029789,56.5885591 284.029789,53.4203981 C284.029789,50.2512402 286.601843,47.6822186 289.774741,47.6822186 C290.28476,47.6822186 290.779808,47.7480142 291.250902,47.8726272" id="Stroke-14" stroke="#C2E8F2" stroke-width="3.99232246" stroke-linecap="round"></path>
                        <path d="M227.506488,83.8595666 C228.810653,83.8595666 229.923834,84.0689143 230.846065,84.4876161 C231.768296,84.9063179 232.462288,85.4692307 232.928061,86.1763715 C233.393835,86.8835123 233.626718,87.6650772 233.626718,88.5210898 C233.626718,89.2840575 233.491646,89.9353616 233.221497,90.4750217 C232.951349,91.0146817 232.62997,91.4519859 232.257351,91.7869474 C231.884733,92.1219088 231.39102,92.5126913 230.7762,92.9593065 C230.030962,93.4617486 229.481358,93.9130094 229.12737,94.3131022 C228.773383,94.713195 228.596392,95.2295861 228.596392,95.862291 L228.596392,96.5601238 L224.572131,96.5601238 L224.572131,95.6948111 C224.572131,94.8201896 224.707203,94.0804943 224.977351,93.4757028 C225.2475,92.8709113 225.573536,92.3963898 225.95547,92.0521238 C226.337404,91.7078579 226.817144,91.331032 227.394702,90.9216347 C227.95363,90.5494553 228.363505,90.2238033 228.624338,89.9446687 C228.885171,89.6655342 229.015585,89.3212735 229.015585,88.9118762 C229.015585,88.409434 228.843252,88.0186516 228.49858,87.739517 C228.153907,87.4603825 227.674168,87.3208173 227.059347,87.3208173 C225.885599,87.3208173 224.795706,87.8883824 223.789635,89.0235294 L220.967063,86.846291 C222.662478,84.8551314 224.842264,83.8595666 227.506488,83.8595666 Z M226.640154,99.1002353 C227.329498,99.1002353 227.921021,99.3468004 228.414741,99.8399381 C228.908461,100.333076 229.155317,100.923902 229.155317,101.612433 C229.155317,102.319574 228.908461,102.919704 228.414741,103.412842 C227.921021,103.90598 227.329498,104.152545 226.640154,104.152545 C225.950809,104.152545 225.359286,103.90598 224.865566,103.412842 C224.371847,102.919704 224.12499,102.319574 224.12499,101.612433 C224.12499,100.923902 224.371847,100.333076 224.865566,99.8399381 C225.359286,99.3468004 225.950809,99.1002353 226.640154,99.1002353 Z" id="?" fill="#C2E8F2" transform="translate(227.296891, 94.006056) rotate(-30.000000) translate(-227.296891, -94.006056) "></path>
                        <path d="M482.049582,167.81673 C482.049582,169.624117 480.581405,171.089566 478.771885,171.089566 C476.961367,171.089566 475.495186,169.624117 475.495186,167.81673 C475.495186,166.009343 476.961367,164.542897 478.771885,164.542897 C480.581405,164.542897 482.049582,166.009343 482.049582,167.81673 Z" id="Stroke-16" stroke="#C2E8F2" stroke-width="3.99232246"></path>
                        <path d="M118.536645,3.16985573 C118.536645,4.68215913 117.310004,5.90635728 115.796914,5.90635728 C114.282825,5.90635728 113.057182,4.68215913 113.057182,3.16985573 C113.057182,1.65755232 114.282825,0.43335418 115.796914,0.43335418 C117.310004,0.43335418 118.536645,1.65755232 118.536645,3.16985573 Z" id="Stroke-18" stroke="#C2E8F2" stroke-width="3.99232246"></path>
                        <path d="M121.329175,77.5550458 C121.329175,79.5358941 119.721267,81.1419065 117.738081,81.1419065 C115.754894,81.1419065 114.146987,79.5358941 114.146987,77.5550458 C114.146987,75.5741975 115.754894,73.9681851 117.738081,73.9681851 C119.721267,73.9681851 121.329175,75.5741975 121.329175,77.5550458 Z" id="Stroke-20" stroke="#C2E8F2" stroke-width="3.99232246"></path>
                        <path d="M386.3079,22.2044421 C386.3079,24.0616743 384.800798,25.5669994 382.941374,25.5669994 C381.082948,25.5669994 379.574848,24.0616743 379.574848,22.2044421 C379.574848,20.3482068 381.082948,18.8428817 382.941374,18.8428817 C384.800798,18.8428817 386.3079,20.3482068 386.3079,22.2044421 Z" id="Stroke-22" stroke="#C2E8F2" stroke-width="3.99232246"></path>
                        <path d="M223.160645,24.6509443 L223.160645,35.5839907" id="Stroke-24" stroke="#C2E8F2" stroke-width="3.99232246" stroke-linecap="round"></path>
                        <path d="M217.68777,30.1173678 L228.634718,30.1173678" id="Stroke-26" stroke="#C2E8F2" stroke-width="3.99232246" stroke-linecap="round"></path>
                        <path d="M195.023355,133.078911 L195.023355,144.012955" id="Stroke-28" stroke="#C2E8F2" stroke-width="3.99232246" stroke-linecap="round"></path>
                        <path d="M189.55048,138.546332 L200.497428,138.546332" id="Stroke-30" stroke="#C2E8F2" stroke-width="3.99232246" stroke-linecap="round"></path>
                        <path d="M41.8657889,179.124413 L41.8657889,190.058456" id="Stroke-32" stroke="#C2E8F2" stroke-width="3.99232246" stroke-linecap="round"></path>
                        <path d="M36.3929136,184.590837 L47.3388637,184.590837" id="Stroke-34" stroke="#C2E8F2" stroke-width="3.99232246" stroke-linecap="round"></path>
                        <path d="M385.120683,142.869805 L378.404599,149.577972" id="Stroke-36" stroke="#C2E8F2" stroke-width="3.99232246" stroke-linecap="round"></path>
                        <path d="M158.897528,285.003596 L152.181443,291.711763" id="Stroke-38" stroke="#C2E8F2" stroke-width="3.99232246" stroke-linecap="round"></path>
                        <path d="M107.114311,108.471731 C107.114311,127.977155 91.2837543,143.791044 71.7533129,143.791044 C52.2238695,143.791044 36.3933129,127.977155 36.3933129,108.471731 C36.3933129,88.9653102 52.2248676,73.1514217 71.7533129,73.1514217 C91.2827562,73.1514217 107.114311,88.9663071 107.114311,108.471731" id="Fill-40" fill="#E9EAEB"></path>
                        <path d="M90.4744107,108.471731 C90.4744107,118.79866 82.0935278,127.17066 71.7534127,127.17066 C61.4152937,127.17066 53.0324146,118.79866 53.0324146,108.471731 C53.0324146,98.1448025 61.4142956,89.7728025 71.7534127,89.7728025 C82.0935278,89.7728025 90.4744107,98.1448025 90.4744107,108.471731" id="Fill-42" fill="#FFFFFF"></path>
                        <path d="M71.7536123,145.91116 C51.0853589,145.91116 34.2696967,129.115321 34.2696967,108.471432 C34.2696967,101.440268 36.2339194,94.585556 39.9497735,88.6509864 C40.340023,88.0269245 41.0137274,87.6540824 41.751309,87.6540824 C42.147547,87.6540824 42.5358004,87.7657356 42.8731516,87.9770793 C43.3542265,88.2771474 43.6895816,88.7456923 43.8173359,89.2979771 C43.9440921,89.849265 43.8482764,90.4175003 43.5478541,90.8970111 C40.2551862,96.1586706 38.5145336,102.234801 38.5145336,108.471432 C38.5145336,126.778578 53.425858,141.671327 71.7536123,141.671327 C79.5885451,141.671327 87.1959155,138.89794 93.1724223,133.860584 C93.5546871,133.538584 94.0397543,133.360138 94.5387946,133.360138 C95.1665873,133.360138 95.7584491,133.635284 96.1616737,134.113798 C96.5269712,134.547451 96.7026334,135.095748 96.6547255,135.659996 C96.6068177,136.224243 96.3423263,136.735655 95.9091593,137.100522 C89.1661267,142.781878 80.5876238,145.91116 71.7536123,145.91116" id="Fill-44" fill="#4C7B93"></path>
                        <path d="M101.755516,129.289879 C101.360276,129.289879 100.972023,129.178225 100.633674,128.966882 C100.153597,128.665817 99.8182418,128.197272 99.6904875,127.645984 C99.5637313,127.094696 99.6585489,126.526461 99.9589712,126.045953 C103.251639,120.78529 104.992292,114.708163 104.992292,108.471532 C104.992292,90.1653833 90.0819655,75.2706402 71.7532131,75.2706402 C63.9192783,75.2706402 56.312906,78.0460211 50.3344031,83.0823802 C49.9531363,83.4053771 49.467071,83.5818291 48.9680307,83.5818291 C48.340238,83.5818291 47.7493743,83.3076805 47.3451516,82.8301635 C46.9798541,82.3965102 46.8041919,81.8472161 46.8520998,81.2839653 C46.9000077,80.7187207 47.1654971,80.2083059 47.597666,79.8424421 C54.3406987,74.1610861 62.9201996,71.0328012 71.7532131,71.0328012 C92.4214664,71.0328012 109.237129,87.8266464 109.237129,108.470535 C109.237129,115.503693 107.272906,122.357408 103.559048,128.292975 C103.1678,128.917037 102.493098,129.289879 101.755516,129.289879" id="Fill-46" fill="#4C7B93"></path>
                        <path d="M71.7536123,91.8923201 C62.6012131,91.8923201 55.1545336,99.3302211 55.1545336,108.471831 C55.1545336,117.613441 62.6012131,125.051342 71.7536123,125.051342 C80.9060115,125.051342 88.352691,117.613441 88.352691,108.471831 C88.352691,99.3302211 80.9060115,91.8923201 71.7536123,91.8923201 M71.7536123,129.289181 C60.260714,129.289181 50.9106948,119.951181 50.9106948,108.471831 C50.9106948,96.9924811 60.260714,87.6534842 71.7536123,87.6534842 C83.2465106,87.6534842 92.5965298,96.9924811 92.5965298,108.471831 C92.5965298,119.951181 83.2465106,129.289181 71.7536123,129.289181" id="Fill-48" fill="#4C7B93"></path>
                        <path d="M175.717781,202.598313 L175.717781,190.433093 C175.717781,171.907625 160.682695,156.888269 142.134365,156.888269 C123.587033,156.888269 108.54995,171.906628 108.54995,190.433093 L108.54995,195.564158 C92.6674933,198.226889 80.5637697,212.015068 80.5637697,228.636449 L80.5637697,274.292659 C80.5637697,292.818127 95.5998541,307.836486 114.147186,307.836486 C127.15018,307.836486 138.419509,300.450424 143.998779,289.65495 C149.674864,294.040331 156.791179,296.656207 164.522311,296.656207 C183.069643,296.656207 198.106726,281.637848 198.106726,263.111384 L198.106726,234.227087 C198.106726,219.622443 188.759701,207.204009 175.717781,202.598313" id="Fill-50" fill="#B3DCB0"></path>
                        <path d="M142.012998,174.073698 C140.911117,174.073698 140.016837,173.180472 140.016837,172.07989 L140.016837,171.813717 C140.016837,170.713135 140.911117,169.819909 142.012998,169.819909 C143.114879,169.819909 144.009159,170.712138 144.009159,171.813717 L144.009159,172.07989 C144.009159,173.180472 143.114879,174.073698 142.012998,174.073698" id="Fill-52" fill="#4C7B93"></path>
                        <path d="M154.323324,180.258591 C153.221443,180.258591 152.327163,179.365365 152.327163,178.264783 L152.327163,177.997612 C152.327163,176.898027 153.220445,176.003804 154.323324,176.003804 C155.425205,176.003804 156.319486,176.89703 156.319486,177.997612 L156.319486,178.264783 C156.319486,179.365365 155.425205,180.258591 154.323324,180.258591" id="Fill-54" fill="#4C7B93"></path>
                        <path d="M158.925774,193.681704 C157.823893,193.681704 156.929612,192.788478 156.929612,191.687896 L156.929612,191.421723 C156.929612,190.321141 157.823893,189.427915 158.925774,189.427915 C160.027655,189.427915 160.921935,190.321141 160.921935,191.421723 L160.921935,191.687896 C160.921935,192.788478 160.027655,193.681704 158.925774,193.681704" id="Fill-56" fill="#4C7B93"></path>
                        <path d="M197.139486,228.42052 C196.124438,228.42052 195.247125,227.731659 195.003593,226.74273 C192.482441,216.460662 184.997835,208.209287 174.983094,204.671275 C174.104783,204.361238 173.514917,203.527826 173.514917,202.597715 L173.514917,190.432495 C173.514917,173.14917 159.437988,159.087838 142.134265,159.087838 C124.830541,159.087838 110.751616,173.14917 110.751616,190.432495 L110.751616,195.56356 C110.751616,196.64221 109.979102,197.554377 108.91415,197.732823 C100.734879,199.104563 93.5447063,203.580662 88.6690825,210.335684 C88.2498887,210.916879 87.598142,211.249845 86.879524,211.249845 C86.4164146,211.249845 85.9732668,211.10629 85.5949942,210.834136 C84.6098887,210.12434 84.3863186,208.747615 85.0959539,207.762674 C90.0025182,200.967776 96.8383724,196.247436 104.865935,194.113064 L106.348084,193.71829 L106.348084,190.433492 C106.348084,170.723702 122.401213,154.689498 142.134265,154.689498 C161.866319,154.689498 177.919447,170.723702 177.919447,190.433492 L177.919447,201.05351 L179.105167,201.579876 C189.276607,206.099838 196.631463,214.891535 199.281367,225.697975 C199.57081,226.875318 198.846203,228.067615 197.66747,228.356718 C197.492806,228.399585 197.31415,228.42052 197.139486,228.42052" id="Fill-58" fill="#4C7B93"></path>
                        <path d="M281.882718,221.630108 L281.882718,209.464888 C281.882718,190.938424 266.847631,175.920064 248.299301,175.920064 C229.751969,175.920064 214.714887,190.938424 214.714887,209.464888 L214.714887,214.595953 C198.833428,217.258684 186.728706,231.046863 186.728706,247.667247 L186.728706,293.324454 C186.728706,311.849922 205.780069,298.300999 224.328399,298.300999 C237.331393,298.300999 247.363102,311.450163 252.94337,300.65469 C258.619455,305.040071 265.718802,300.735439 273.450933,300.735439 C291.998265,300.735439 304.271662,300.668646 304.271662,282.143179 L304.271662,253.257885 C304.271662,238.653241 294.924637,226.235804 281.882718,221.630108" id="Fill-60" fill="#99D885"></path>
                        <path d="M248.178933,193.104397 C247.077052,193.104397 246.182772,192.211171 246.182772,191.110589 L246.182772,190.844415 C246.182772,189.743833 247.077052,188.850607 248.178933,188.850607 C249.280814,188.850607 250.175094,189.743833 250.175094,190.844415 L250.175094,191.110589 C250.175094,192.211171 249.280814,193.104397 248.178933,193.104397" id="Fill-62" fill="#4C7B93"></path>
                        <path d="M260.488361,199.289289 C259.38648,199.289289 258.4922,198.396063 258.4922,197.295481 L258.4922,197.029308 C258.4922,195.928726 259.38648,195.0355 260.488361,195.0355 C261.590242,195.0355 262.484522,195.928726 262.484522,197.029308 L262.484522,197.295481 C262.484522,198.396063 261.590242,199.289289 260.488361,199.289289" id="Fill-64" fill="#4C7B93"></path>
                        <path d="M265.09081,212.713399 C263.988929,212.713399 263.094649,211.820173 263.094649,210.719591 L263.094649,210.453418 C263.094649,209.352836 263.988929,208.45961 265.09081,208.45961 C266.192691,208.45961 267.086971,209.351839 267.086971,210.453418 L267.086971,210.719591 C267.086971,211.820173 266.193689,212.713399 265.09081,212.713399" id="Fill-66" fill="#4C7B93"></path>
                        <path d="M303.30542,247.452215 C302.290372,247.452215 301.41306,246.763354 301.169528,245.774425 C298.648376,235.492357 291.16377,227.240983 281.149029,223.70297 C280.270718,223.392933 279.680852,222.559521 279.680852,221.62941 L279.680852,209.46419 C279.680852,192.180865 265.603923,178.119534 248.3002,178.119534 C230.996476,178.119534 216.917551,192.180865 216.917551,209.46419 L216.917551,214.595255 C216.917551,215.673905 216.145036,216.586072 215.080084,216.764518 C206.900814,218.136258 199.710641,222.612357 194.835017,229.367379 C194.415823,229.948574 193.764077,230.28154 193.045459,230.28154 C192.582349,230.28154 192.139202,230.137986 191.760929,229.865831 C190.775823,229.156035 190.552253,227.779311 191.261889,226.79437 C196.168453,219.999472 203.004307,215.279131 211.031869,213.14476 L212.514019,212.749986 L212.514019,209.465187 C212.514019,189.755398 228.567148,173.721193 248.3002,173.721193 C268.032253,173.721193 284.085382,189.755398 284.085382,209.465187 L284.085382,220.085206 L285.271102,220.611571 C295.442541,225.131534 302.797397,233.92323 305.447301,244.72967 C305.736745,245.907014 305.012138,247.099311 303.833405,247.388413 C303.658741,247.43128 303.480084,247.452215 303.30542,247.452215" id="Fill-68" fill="#4C7B93"></path>
                        <path d="M86.1605067,286.132889 L86.1605067,307.836486 L254.078587,307.836486 C254.078587,259.636176 205.340315,226.677533 160.53448,244.577941 L97.1663417,269.895316 C90.5191248,272.551068 86.1605067,278.981099 86.1605067,286.132889" id="Fill-70" fill="#6BC74D"></path>
                        <path d="M13.3961382,243.544451 L13.3961382,307.836785 L69.3694971,307.836785 L86.1612054,307.836785 L119.74562,307.836785 L119.74562,260.316364 C119.74562,246.422513 108.468307,235.158494 94.5570595,235.158494 C91.3751785,235.158494 88.3340269,235.754643 85.5304184,236.829305 C82.3754856,219.969664 67.5749482,207.205305 49.7791708,207.205305 C29.6848138,207.205305 13.3961382,223.474779 13.3961382,243.544451" id="Fill-72" fill="#99D885"></path>
                        <path d="M7.79950096,307.836985 L254.078887,307.836985 C254.078887,298.227827 246.973551,290.097077 237.441881,288.799108 L57.7135125,264.32013 C31.3102879,260.7233 7.79950096,281.222638 7.79950096,307.836985" id="Fill-74" fill="#6BC74D"></path>
                        <path d="M63.7718618,307.836985 L254.078887,307.836985 C254.078887,298.227827 246.973551,290.097077 237.441881,288.799108 L106.430825,270.954526 C84.5029942,267.968799 64.430595,284.439647 63.7918234,306.534031 C63.7778503,306.967684 63.7718618,307.401337 63.7718618,307.836985" id="Fill-76" fill="#99D885"></path>
                        <path d="M125.341958,307.836985 L254.078388,307.836985 C254.078388,298.227827 246.973052,290.097077 237.441382,288.799108 L159.39048,278.168124 C141.540806,275.736675 125.497658,289.457065 125.343954,307.450186 C125.341958,307.578786 125.341958,307.707387 125.341958,307.836985" id="Fill-78" fill="#6BC74D"></path>
                        <path d="M192.508691,307.836985 L254.078288,307.836985 C254.078288,298.227827 246.972952,290.097077 237.44228,288.799108 L217.52658,286.086533 C204.424775,284.302074 192.589536,294.359839 192.510687,307.566824 C192.508691,307.657542 192.508691,307.746266 192.508691,307.836985" id="Fill-80" fill="#99D885"></path>
                        <path d="M49.7782726,209.404376 C30.9305182,209.404376 15.5980038,224.718815 15.5980038,243.544351 L15.5980038,278.769955 L19.0104415,275.336617 C19.7759693,274.566011 20.5824184,273.810357 21.4058349,273.091589 C29.8206526,265.75637 40.6029175,261.716915 51.7664491,261.716915 C53.8384645,261.716915 55.9394242,261.858475 58.0094434,262.139602 L117.541958,270.249416 L117.541958,260.316264 C117.541958,247.65658 107.230787,237.357565 94.5551631,237.357565 C91.7266027,237.357565 88.9559309,237.87097 86.3180038,238.881831 C86.0654894,238.979528 85.8,239.029373 85.5295202,239.029373 C85.1542418,239.029373 84.7829559,238.931676 84.4565835,238.75024 C83.8836852,238.429237 83.4864491,237.876952 83.3656814,237.232952 C80.3484837,221.108029 66.2236468,209.404376 49.7782726,209.404376 Z M164.52261,310.036853 C163.308944,310.036853 162.321843,309.050915 162.321843,307.837682 C162.321843,306.62445 163.308944,305.638512 164.52261,305.638512 L190.332975,305.638512 L190.598464,303.954741 C191.186334,300.217348 192.620576,296.762079 194.864261,293.684636 C195.283455,293.108425 195.934203,292.77845 196.647831,292.77845 C197.113935,292.77845 197.560077,292.923001 197.940345,293.199144 C198.921459,293.912927 199.13904,295.290648 198.426411,296.272599 C196.901344,298.364103 195.829405,300.68988 195.236545,303.185131 L194.654664,305.638512 L251.945489,305.638512 L251.193935,303.083447 C249.29858,296.634475 243.783186,291.882233 237.143954,290.979038 L57.4155854,266.499063 C55.5491747,266.244853 53.6488292,266.116252 51.7664491,266.116252 C41.6678695,266.116252 31.9146257,269.770902 24.303263,276.406295 C16.3445681,283.346741 11.3481766,292.94593 10.2343186,303.434357 L10.0007678,305.638512 L61.5815739,305.638512 L61.7542418,303.834116 C62.6984261,293.938846 67.4183493,284.844091 75.0416891,278.224648 C75.4439155,277.876729 75.956929,277.684326 76.4859117,277.684326 C77.1236852,277.684326 77.7305182,277.960469 78.148714,278.440976 C78.5349712,278.884599 78.7246065,279.451837 78.6836852,280.038017 C78.6427639,280.623199 78.3752783,281.158537 77.9311324,281.543342 C71.4046833,287.210741 67.2486756,294.97463 66.2296353,303.406444 L65.9601536,305.638512 L123.158157,305.638512 L123.367754,303.881967 C124.189175,297.042209 127.140499,290.774673 131.905336,285.756258 C132.325528,285.31463 132.892438,285.070388 133.503263,285.070388 C134.069175,285.070388 134.60714,285.284723 135.018349,285.674512 C135.445528,286.078258 135.688061,286.624562 135.704031,287.211738 C135.719002,287.798915 135.505413,288.357181 135.100192,288.783856 C131.265566,292.823311 128.772361,297.852692 127.89405,303.328685 L127.522764,305.637515 L147.730902,305.637515 C148.944568,305.637515 149.932668,306.623453 149.932668,307.836685 C149.932668,309.049918 148.944568,310.035856 147.730902,310.035856 L2.20176583,310.035856 C0.987101727,310.035856 0,309.049918 0,307.836685 C0,306.623453 0.988099808,305.637515 2.20276392,305.636518 L5.61420345,305.636518 L5.77289827,303.816172 C6.3118618,297.646333 8.0575048,291.737682 10.9619194,286.257701 L11.1944722,285.82006 L11.1944722,243.543354 C11.1944722,222.293348 28.5031862,205.005038 49.7782726,205.005038 C66.8274856,205.005038 81.6429942,215.921137 86.6453743,232.167682 L87.1803455,233.904289 L88.9609213,233.533441 C90.789405,233.151627 92.6727831,232.959224 94.5561612,232.959224 C109.659117,232.959224 121.946488,245.231113 121.946488,260.315267 L121.946488,270.848555 L237.737812,286.619577 C240.56238,287.004382 243.24023,287.93549 245.695509,289.385986 L250.253743,292.082611 L248.609904,287.052233 C244.102572,273.270035 235.203685,261.578345 222.874395,253.241237 C211.801689,245.752493 199.076161,241.794785 186.073167,241.794785 C177.683301,241.794785 169.365298,243.417744 161.351708,246.6198 L136.034395,256.734388 C135.770902,256.84006 135.49643,256.893893 135.217965,256.893893 C134.311708,256.893893 133.51025,256.35058 133.173896,255.51019 C132.955317,254.963887 132.962303,254.366741 133.193858,253.827416 C133.425413,253.287094 133.852591,252.870388 134.398541,252.652066 L159.715854,242.535484 C168.086756,239.192865 176.888829,237.497131 185.878541,237.497131 C199.988407,237.497131 213.635163,241.682134 225.342649,249.598549 C243.65643,261.982091 254.889827,281.722785 256.16238,303.758351 L256.272169,305.637515 L259.676622,305.637515 C260.891286,305.637515 261.878388,306.623453 261.878388,307.836685 C261.878388,309.049918 260.890288,310.035856 259.675624,310.036853 L259.676622,310.036853 L164.52261,310.036853 Z" id="Fill-82" fill="#4C7B93"></path>
                        <path d="M382.086518,152.237214 C382.399916,152.190359 382.720299,152.168427 383.044676,152.168427 C386.654733,152.168427 389.579109,155.090353 389.579109,158.695158 C389.579109,162.200272 386.814426,165.061387 383.341106,165.215907 L382.086518,152.237214 Z" id="Fill-84" fill="#F4D3C3"></path>
                        <path d="M325.546848,152.237214 C325.235447,152.192353 324.914065,152.168427 324.588691,152.168427 C320.978633,152.168427 318.051263,155.090353 318.051263,158.695158 C318.051263,162.200272 320.81894,165.061387 324.292261,165.215907 L325.546848,152.237214 Z" id="Fill-86" fill="#F4D3C3"></path>
                        <path d="M323.284499,206.166332 L323.284499,231.563459 L384.345075,231.563459 L384.345075,206.166332 C384.345075,196.61001 376.58899,188.865063 367.02139,188.865063 L340.606188,188.865063 C331.039585,188.865063 323.284499,196.61001 323.284499,206.166332" id="Fill-88" fill="#C2E8F2"></path>
                        <path d="M373.672,206.166332 L373.672,231.563459 L384.344476,231.563459 L384.344476,206.166332 C384.344476,196.61001 376.58939,188.865063 367.022787,188.865063 L356.349313,188.865063 C365.915916,188.865063 373.671002,196.61001 373.672,206.166332" id="Fill-90" fill="#46BDFA"></path>
                        <path d="M344.362165,193.42859 L332.864276,185.0855 C326.78896,180.675197 323.50228,173.384838 324.223893,165.918027 L326.218058,145.306039 C327.591417,131.109129 339.535447,120.27677 353.815985,120.27677 C368.094526,120.27677 380.038557,131.109129 381.411916,145.306039 L383.406081,165.918027 C384.128691,173.384838 380.842012,180.676194 374.766695,185.0855 L363.267808,193.42859 C357.631647,197.519884 349.998326,197.519884 344.362165,193.42859" id="Fill-92" fill="#FDE9DE"></path>
                        <path d="M373.256798,137.374172 C372.744783,128.668209 362.912691,120.492599 354.230388,120.282253 C368.327278,120.487615 380.051731,131.2472 381.413113,145.304544 L383.404284,165.918525 C384.126894,173.385336 380.842211,180.675695 374.766894,185.084005 L363.268008,193.428092 C361.98248,194.3592 360.593152,195.080959 359.147931,195.584395 C359.918449,195.083949 360.630081,194.456897 361.257873,193.710215 L373.274764,178.96102 C375.380714,176.456798 376.444668,173.244773 376.25104,169.979912 L373.256798,137.374172 Z" id="Fill-94" fill="#F4D3C3"></path>
                        <path d="M322.079816,146.281111 L341.770948,146.281111 L343.502618,153.275389 L364.127954,153.275389 L365.858626,146.281111 L385.550756,146.281111 L383.865996,137.888176 L381.403731,137.888176 C381.403731,124.635334 372.037743,113.569699 359.556745,110.929897 L359.556745,106.554485 L348.072829,106.554485 L348.072829,110.929897 C342.759048,112.051414 338.009182,114.703179 334.306303,118.40269 C329.311908,123.390201 326.224845,130.277811 326.224845,137.888176 L323.763578,137.888176 L322.079816,146.281111 Z" id="Fill-96" fill="#F26105"></path>
                        <path d="M359.555647,106.553887 L359.555647,110.929299 C372.036645,113.567107 381.402633,124.635733 381.402633,137.887578 L383.8639,137.887578 L385.550656,146.280513 L377.147816,146.280513 L375.464054,137.887578 L372.999793,137.887578 C372.999793,124.635733 363.633804,113.567107 351.1558,110.929299 L351.1558,106.553887 L359.555647,106.553887 Z" id="Fill-98" fill="#CC4C05"></path>
                        <path d="M326.122841,146.280114 L332.246065,146.280114 L332.246065,166.143427 L324.871248,173.512541 L324.868253,173.512541 C324.20453,171.076108 323.971977,168.508083 324.224491,165.916133 L326.122841,146.280114 Z" id="Fill-100" fill="#324C5E"></path>
                        <path d="M375.147662,146.280114 L381.506434,146.280114 L383.404783,165.917129 C383.656299,168.530015 383.418756,171.120968 382.744054,173.574349 L382.523478,173.512541 L375.147662,166.144424 L375.147662,146.280114 Z" id="Fill-102" fill="#324C5E"></path>
                        <path d="M364.240937,163.918636 C364.240937,165.077038 365.181129,166.016122 366.341896,166.016122 C367.502664,166.016122 368.442856,165.077038 368.442856,163.918636 L368.442856,160.56206 C368.442856,159.403658 367.502664,158.463577 366.341896,158.463577 C365.181129,158.463577 364.240937,159.403658 364.240937,160.56206 L364.240937,163.918636 Z" id="Fill-104" fill="#4C7B93"></path>
                        <path d="M339.303593,160.561861 L339.303593,163.918437 C339.303593,165.076839 340.243785,166.01692 341.403555,166.01692 C342.564322,166.01692 343.504514,165.076839 343.504514,163.918437 L343.504514,160.562858 C343.504514,159.403458 342.564322,158.464375 341.403555,158.464375 C340.242787,158.464375 339.303593,159.403458 339.303593,160.561861" id="Fill-106" fill="#4C7B93"></path>
                        <path d="M321.24063,205.156767 L321.24063,231.563758 C321.24063,232.72216 322.180821,233.662241 323.340591,233.662241 L384.402165,233.662241 C385.561935,233.662241 386.503125,232.72216 386.503125,231.563758 L386.503125,205.156767 C386.503125,198.953033 383.329228,193.32551 378.013451,190.101523 C377.022357,189.501386 375.729843,189.816408 375.128,190.806334 C374.526157,191.798253 374.841551,193.088247 375.833643,193.68938 C379.883854,196.145752 382.302203,200.432439 382.302203,205.156767 L382.302203,229.465275 L355.972837,229.465275 L355.972837,206.693993 L365.121244,213.185832 C365.707117,213.601541 366.465658,213.689269 367.131378,213.417114 C367.7961,213.146953 368.276177,212.553795 368.404929,211.847987 L370.898134,198.057814 C371.103739,196.917355 370.345198,195.826742 369.204392,195.620383 C368.062587,195.415021 366.969689,196.171671 366.763086,197.312129 L364.85775,207.850402 L355.088537,200.917931 C354.359939,200.400538 353.383816,200.400538 352.655217,200.917931 L342.886004,207.850402 L340.97967,197.312129 C340.774065,196.171671 339.682165,195.414024 338.539363,195.620383 C337.397559,195.825746 336.640015,196.917355 336.84562,198.057814 L339.338825,211.847987 C339.467578,212.554792 339.947655,213.146953 340.612376,213.417114 C340.868883,213.521789 341.138365,213.572631 341.40585,213.572631 C341.836023,213.572631 342.262203,213.442037 342.623509,213.184835 L351.771916,206.692996 L351.771916,229.465275 L325.442549,229.465275 L325.442549,205.156767 C325.442549,200.433436 327.861896,196.146749 331.913106,193.68938 C332.905198,193.088247 333.220591,191.798253 332.618749,190.806334 C332.016906,189.816408 330.72539,189.501386 329.733298,190.101523 C324.416522,193.326507 321.241628,198.95403 321.24063,205.156767" id="Fill-108" fill="#4C7B93"></path>
                        <path d="M359.19494,167.416573 L359.19494,160.834015 C359.19494,159.674616 358.254749,158.735533 357.093981,158.735533 C355.933213,158.735533 354.993021,159.674616 354.993021,160.834015 L354.993021,167.416573 C354.993021,168.033656 354.489988,168.535099 353.873175,168.535099 C353.255363,168.535099 352.75233,168.033656 352.75233,167.416573 L352.75233,160.834015 C352.75233,159.674616 351.812138,158.735533 350.65137,158.735533 C349.491601,158.735533 348.551409,159.674616 348.551409,160.834015 L348.551409,167.416573 C348.551409,170.346474 350.938818,172.732065 353.873175,172.732065 C356.806534,172.732065 359.19494,170.346474 359.19494,167.416573" id="Fill-110" fill="#4C7B93"></path>
                        <path d="M387.535939,158.694659 C387.535939,160.363477 386.616706,161.816963 385.249336,162.571619 L384.467839,154.48274 C386.24542,155.059947 387.535939,156.728765 387.535939,158.694659 Z M377.305612,148.378697 L379.655094,148.378697 L381.370795,166.118604 C381.476591,167.205229 381.485574,168.290858 381.403731,169.369508 L377.305612,165.275223 L377.305612,148.3777 L377.305612,148.378697 Z M379.272829,135.788796 L361.715593,135.788796 L361.715593,113.664505 C371.418933,116.802759 378.420468,125.590467 379.272829,135.788796 Z M350.231678,108.653068 L357.513674,108.653068 L357.513674,110.895105 L357.513674,110.948938 L357.513674,135.788796 L350.231678,135.788796 L350.231678,108.653068 Z M328.087263,148.3777 L330.203194,148.3777 L330.203194,165.275223 L326.323655,169.149192 C326.260775,168.144313 326.27375,167.132455 326.37256,166.119601 L328.087263,148.3777 Z M323.276514,154.484734 L322.495017,162.570622 C321.127647,161.814969 320.210411,160.36248 320.210411,158.694659 C320.210411,156.729762 321.498933,155.061941 323.276514,154.484734 Z M363.232676,148.378697 L362.541006,151.177006 L345.204345,151.177006 L344.512676,148.378697 L363.232676,148.378697 Z M324.700775,144.181731 L325.544154,139.985762 L382.203194,139.985762 L383.044576,144.181731 L324.700775,144.181731 Z M327.307762,174.102808 L333.788299,167.62692 C334.182541,167.233142 334.404115,166.699799 334.404115,166.143526 L334.404115,148.3777 L340.184,148.3777 L341.52043,153.777929 C341.752983,154.715019 342.594365,155.372975 343.559509,155.372975 L364.184845,155.372975 C365.151985,155.372975 365.993367,154.715019 366.224921,153.777929 L367.561351,148.3777 L373.104691,148.3777 L373.104691,166.143526 C373.104691,166.699799 373.326265,167.233142 373.719509,167.62692 L380.375708,174.278263 C379.094173,177.911978 376.719739,181.11204 373.586764,183.385978 L362.088875,191.731062 C357.174326,195.297985 350.569029,195.297985 345.651486,191.731062 L334.154595,183.385978 C330.972714,181.078146 328.576322,177.813285 327.307762,174.102808 Z M391.737858,158.694659 C391.737858,154.25744 388.365344,150.59282 384.046649,150.121285 L383.877973,148.3777 L385.608645,148.3777 C386.238434,148.3777 386.835286,148.096573 387.23352,147.610084 C387.63375,147.124591 387.792445,146.484579 387.669681,145.868492 L385.984921,137.475557 C385.788299,136.494604 384.926956,135.788796 383.925881,135.788796 L383.481735,135.788796 C383.045574,129.695718 380.732023,123.83492 376.843501,119.097632 C372.936015,114.338412 367.612253,110.902084 361.716591,109.287099 L361.716591,106.554585 C361.716591,105.395186 360.775401,104.456102 359.615631,104.456102 L348.132714,104.456102 C346.970948,104.456102 346.030756,105.395186 346.030756,106.554585 L346.030756,109.280121 C342.431678,110.257087 339.087109,111.893006 336.069912,114.153985 C335.141697,114.849824 334.95306,116.16474 335.650718,117.091861 C336.062925,117.640158 336.693712,117.930257 337.331486,117.930257 C337.770641,117.930257 338.212791,117.794678 338.591063,117.509563 C340.868683,115.803861 343.362887,114.513867 346.030756,113.655533 L346.030756,135.789793 L328.469528,135.789793 C328.824845,131.442294 330.281044,127.284207 332.735324,123.656474 C333.385075,122.696455 333.131562,121.391508 332.170411,120.74352 C331.208261,120.094536 329.90377,120.346752 329.253021,121.306771 C326.328645,125.631341 324.621927,130.600907 324.258626,135.788796 L323.822464,135.788796 C322.82139,135.788796 321.960046,136.494604 321.763424,137.47456 L320.076668,145.867495 C319.952906,146.484579 320.112599,147.124591 320.511831,147.610084 C320.911063,148.096573 321.506917,148.378697 322.136706,148.378697 L323.867378,148.378697 L323.698702,150.122282 C319.380008,150.595811 316.008491,154.259433 316.008491,158.694659 C316.008491,162.575607 318.557589,165.861402 322.106764,166.943043 C322.000967,169.342591 322.264461,171.73217 322.89924,174.062932 C324.289566,179.163093 327.409566,183.679068 331.685344,186.781433 L343.183232,195.126517 C346.380084,197.445316 350.126879,198.604715 353.871678,198.604715 C357.617474,198.605712 361.362273,197.446313 364.559125,195.126517 L376.057013,186.780437 C380.314825,183.691031 383.429835,179.197985 384.827148,174.130721 C385.473904,171.780022 385.742388,169.368511 385.636591,166.94404 C389.187762,165.864393 391.73686,162.577601 391.737858,158.694659 Z" id="Fill-112" fill="#4C7B93"></path>
                        <path d="M340.567762,217.200464 L331.604998,217.200464 C330.44423,217.200464 329.504038,218.139548 329.504038,219.298947 C329.504038,220.458347 330.44423,221.39743 331.604998,221.39743 L340.567762,221.39743 C341.727532,221.39743 342.667724,220.458347 342.667724,219.298947 C342.667724,218.139548 341.727532,217.200464 340.567762,217.200464" id="Fill-114" fill="#4C7B93"></path>
                        <path d="M376.139954,217.200464 L367.17719,217.200464 C366.015424,217.200464 365.075232,218.139548 365.075232,219.298947 C365.075232,220.458347 366.015424,221.39743 367.17719,221.39743 L376.139954,221.39743 C377.299724,221.39743 378.239916,220.458347 378.239916,219.298947 C378.239916,218.139548 377.299724,217.200464 376.139954,217.200464" id="Fill-116" fill="#4C7B93"></path>
                        <path d="M353.786441,162.779673 C353.786441,170.364119 347.63028,176.51402 340.035885,176.51402 C332.441489,176.51402 326.285328,170.364119 326.285328,162.779673 C326.285328,155.195227 332.441489,149.046323 340.035885,149.046323 C347.63028,149.046323 353.786441,155.195227 353.786441,162.779673" id="Fill-118" fill="#E9EAEB"></path>
                        <path d="M353.786441,162.779673 C353.786441,170.364119 347.63028,176.51402 340.035885,176.51402 C332.441489,176.51402 326.285328,170.364119 326.285328,162.779673 C326.285328,155.195227 332.441489,149.046323 340.035885,149.046323 C347.63028,149.046323 353.786441,155.195227 353.786441,162.779673 Z" id="Stroke-120" stroke="#4C7B93" stroke-width="3.99232246"></path>
                        <path d="M381.200522,162.779673 C381.200522,170.364119 375.044361,176.51402 367.450964,176.51402 C359.85557,176.51402 353.699409,170.364119 353.699409,162.779673 C353.699409,155.195227 359.85557,149.046323 367.450964,149.046323 C375.044361,149.046323 381.200522,155.195227 381.200522,162.779673" id="Fill-122" fill="#E9EAEB"></path>
                        <path d="M381.200522,162.779673 C381.200522,170.364119 375.044361,176.51402 367.450964,176.51402 C359.85557,176.51402 353.699409,170.364119 353.699409,162.779673 C353.699409,155.195227 359.85557,149.046323 367.450964,149.046323 C375.044361,149.046323 381.200522,155.195227 381.200522,162.779673 Z" id="Stroke-124" stroke="#4C7B93" stroke-width="3.99232246"></path>
                        <path d="M346.473305,184.590837 L361.156069,184.590837" id="Stroke-126" stroke="#4C7B93" stroke-width="3.99232246" stroke-linecap="round"></path>
                        <path d="M331.338411,151.145803 C325.221175,146.25898 318.05795,145.975859 312.23415,151.210602 L290.76843,186.866868 C288.479831,190.66906 289.447969,195.583797 293.008123,198.236559 L322.996453,220.577178 L322.996453,199.758831 L307.943401,189.509661 L331.338411,151.145803 Z" id="Fill-128" fill="#C2E8F2"></path>
                        <path d="M322.227033,166.086703 L331.338511,151.146102 C325.221274,146.258282 318.05805,145.976158 312.23425,151.209904 L308.162081,157.975892 L322.227033,166.086703 Z" id="Fill-130" fill="#FDE9DE"></path>
                        <path d="M331.338411,151.145803 C325.221175,146.25898 318.05795,145.975859 312.23415,151.210602 L290.76843,186.866868 C288.479831,190.66906 289.447969,195.583797 293.008123,198.236559 L322.996453,220.577178 L322.996453,199.758831 L307.943401,189.509661 L331.338411,151.145803 Z" id="Stroke-132" stroke="#4C7B93" stroke-width="3.99232246" stroke-linecap="round" stroke-linejoin="round"></path>
                        <g id="Group-137" transform="translate(308.406910, 156.513932)">
                            <path d="M0.391846449,0.405042105 L14.1364146,9.05617523" id="Fill-134" fill="#C2E8F2"></path>
                            <path d="M0.391846449,0.405042105 L14.1364146,9.05617523" id="Stroke-136" stroke="#4C7B93" stroke-width="3.99232246" stroke-linecap="round" stroke-linejoin="round"></path>
                        </g>
                        <path d="M375.956706,151.145803 C382.073942,146.25898 389.237167,145.975859 395.060967,151.210602 L416.526687,186.866868 C418.815286,190.66906 417.847148,195.583797 414.286994,198.236559 L384.298664,220.577178 L384.298664,199.758831 L399.351716,189.509661 L375.956706,151.145803 Z" id="Fill-138" fill="#46BDFA"></path>
                        <path d="M385.068084,166.086703 L375.956607,151.146102 C382.073843,146.258282 389.237067,145.976158 395.060868,151.209904 L399.133036,157.975892 L385.068084,166.086703 Z" id="Fill-140" fill="#F4D3C3"></path>
                        <path d="M375.956706,151.145803 C382.073942,146.25898 389.237167,145.975859 395.060967,151.210602 L416.526687,186.866868 C418.815286,190.66906 417.847148,195.583797 414.286994,198.236559 L384.298664,220.577178 L384.298664,199.758831 L399.351716,189.509661 L375.956706,151.145803 Z" id="Stroke-142" stroke="#4C7B93" stroke-width="3.99232246" stroke-linecap="round" stroke-linejoin="round"></path>
                        <path d="M399.013866,157.876899 L385.269298,166.528032" id="Stroke-144" stroke="#4C7B93" stroke-width="3.99232246" stroke-linecap="round" stroke-linejoin="round"></path>
                        <g id="Group-2" transform="translate(330.364683, 150.532508)" fill="#FFFFFF">
                            <path d="M16.1077236,8.3782805 C16.1077236,12.5931907 12.6873013,16.0085839 8.46941267,16.0085839 C4.24952783,16.0085839 0.829105566,12.5931907 0.829105566,8.3782805 C0.829105566,4.16436718 4.24952783,0.748973994 8.46941267,0.748973994 C12.6873013,0.748973994 16.1077236,4.16436718 16.1077236,8.3782805" id="Fill-146"></path>
                            <path d="M43.1465259,8.3782805 C43.1465259,12.5931907 39.7261036,16.0085839 35.508215,16.0085839 C31.2883301,16.0085839 27.8679079,12.5931907 27.8679079,8.3782805 C27.8679079,4.16436718 31.2883301,0.748973994 35.508215,0.748973994 C39.7261036,0.748973994 43.1465259,4.16436718 43.1465259,8.3782805" id="Fill-148"></path>
                        </g>
                        <path d="M517.585743,299.477147 C517.585743,271.635611 494.989198,249.066701 467.1158,249.066701 C463.563631,249.066701 460.100292,249.441537 456.755724,250.13937 C448.192192,234.483989 431.560177,223.86098 412.439946,223.86098 C406.066203,223.86098 399.991885,225.090162 394.376683,227.244472 C385.607547,219.897289 374.312269,215.459072 361.971002,215.459072 C341.309735,215.459072 323.572845,227.873518 315.76486,245.628379 C313.005167,245.162825 310.187585,244.863754 307.295148,244.863754 C279.420752,244.863754 256.825205,267.432664 256.825205,295.274199 L256.825205,307.87706 L517.585743,307.87706 L517.585743,299.47615 L517.585743,299.477147 Z" id="Fill-150" fill="#99D885"></path>
                        <path d="M286.264891,261.667867 C289.15633,261.667867 291.97491,261.966938 294.733605,262.433489 C297.705889,255.675477 302.122395,249.699037 307.583893,244.879006 C307.487079,244.879006 307.392261,244.866046 307.293451,244.866046 C290.499747,244.866046 275.664276,253.090505 266.490917,265.692368 C272.56324,263.105402 279.24539,261.667867 286.264891,261.667867" id="Fill-152" fill="#6BC74D"></path>
                        <path d="M467.115401,249.066302 C463.562234,249.066302 460.100891,249.441138 456.755324,250.137974 C448.190795,234.48359 431.559777,223.860581 412.440545,223.860581 C406.064806,223.860581 399.990488,225.089763 394.375286,227.243076 C385.60615,219.895893 374.311869,215.457677 361.969605,215.457677 C345.137973,215.457677 330.251601,223.700079 321.087225,236.353782 C327.183501,233.737906 333.883616,232.261491 340.941044,232.261491 C353.282311,232.261491 364.577589,236.698711 373.346726,244.045893 C378.961927,241.892581 385.036246,240.662401 391.409988,240.662401 C410.531217,240.662401 427.162234,251.285411 435.726764,266.941788 C439.071332,266.242959 442.534672,265.868123 446.086841,265.868123 C471.086764,265.868123 491.787954,284.044674 495.79924,307.876661 L517.584345,307.876661 L517.584345,299.474754 C517.585344,271.636209 494.988798,249.066302 467.115401,249.066302" id="Fill-154" fill="#6BC74D"></path>
                        <path d="M307.294749,247.023845 C280.657973,247.023845 258.987647,268.668625 258.987647,295.274 L258.987647,305.718563 L515.422503,305.71956 L515.422503,299.476947 C515.422503,272.871573 493.752177,251.225796 467.115401,251.225796 C463.80377,251.225796 460.466188,251.571721 457.196476,252.252607 L455.627493,252.579591 L454.857973,251.173957 C446.372292,235.659139 430.118549,226.020074 412.440545,226.020074 C406.573827,226.020074 400.757013,227.10969 395.150795,229.260012 L393.963079,229.715598 L392.98496,228.897139 C384.304653,221.623728 373.289835,217.618167 361.970603,217.618167 C342.818434,217.618167 325.458818,228.953963 317.744653,246.498477 L317.065958,248.040687 L315.403155,247.757567 C312.484768,247.264099 309.832868,247.023845 307.294749,247.023845 Z M254.662964,310.037152 L254.662964,295.274997 C254.662964,266.289015 278.27256,242.707251 307.29375,242.707251 C309.172138,242.707251 311.067493,242.822892 313.088607,243.062149 L314.468952,243.225641 L315.100737,241.988483 C324.143347,224.293437 342.10281,213.301573 361.969605,213.301573 C373.455516,213.301573 384.810679,217.148625 393.944115,224.133932 L394.787493,224.778929 L395.793559,224.441975 C401.21114,222.623622 406.81137,221.70348 412.439547,221.70348 C430.785267,221.70348 447.511102,231.006588 457.183501,246.588198 L457.878165,247.707721 L459.18066,247.509337 C461.808607,247.110576 464.477474,246.908204 467.114403,246.908204 C481.149413,246.908204 494.361006,252.382204 504.312868,262.322334 C514.265727,272.262464 519.746188,285.458483 519.746188,299.476947 L519.746188,310.037152 L254.662964,310.037152 Z" id="Fill-156" fill="#4C7B93"></path>
                    </g>
                </g>
            </g>
        </g>
    </g>
</svg>