<?xml version="1.0" encoding="UTF-8"?>
<svg width="44px" height="44px" viewBox="0 0 44 44" version="1.1" xmlns="http://www.w3.org/2000/svg" xmlns:xlink="http://www.w3.org/1999/xlink">
    <!-- Generator: Sketch 50.2 (55047) - http://www.bohemiancoding.com/sketch -->
    <title>question</title>
    <desc>Created with Sketch.</desc>
    <defs></defs>
    <g id="Contractor-Main-Page" stroke="none" stroke-width="1" fill="none" fill-rule="evenodd">
        <g id="Concractor_Main" transform="translate(-398.000000, -2391.000000)" fill="#AFEBAE">
            <g id="Start" transform="translate(0.000000, 1470.000000)">
                <g id="Questions" transform="translate(398.000000, 921.000000)">
                    <g id="question">
                        <path d="M22,44 C9.8497355,44 0,34.1502645 0,22 C0,9.8497355 9.8497355,0 22,0 C34.1502645,0 44,9.8497355 44,22 C44,34.1502645 34.1502645,44 22,44 Z M22.23,11 C19.2499851,11 16.8400092,12.0899891 15,14.27 L18.33,16.91 C19.3900053,15.7499942 20.4999942,15.17 21.66,15.17 C22.2400029,15.17 22.6849984,15.2949988 22.995,15.545 C23.3050015,15.7950013 23.46,16.1499977 23.46,16.61 C23.46,16.9900019 23.3350013,17.3149987 23.085,17.585 C22.8349987,17.8550014 22.4300028,18.1799981 21.87,18.56 C21.2499969,18.9800021 20.740002,19.3799981 20.34,19.76 C19.939998,20.1400019 19.5950014,20.6599967 19.305,21.32 C19.0149985,21.9800033 18.87,22.7999951 18.87,23.78 L18.87,24.53 L23.67,24.53 L23.67,23.96 C23.67,23.3199968 23.8499982,22.800002 24.21,22.4 C24.5700018,21.999998 25.1399961,21.5200028 25.92,20.96 C26.5800033,20.5199978 27.1199979,20.1100019 27.54,19.73 C27.9600021,19.3499981 28.3149985,18.860003 28.605,18.26 C28.8950014,17.659997 29.04,16.9400042 29.04,16.1 C29.04,15.1599953 28.7850026,14.3050039 28.275,13.535 C27.7649974,12.7649962 26.9950051,12.1500023 25.965,11.69 C24.9349948,11.2299977 23.6900073,11 22.23,11 Z M21.3,27.14 C20.499996,27.14 19.8200028,27.4249972 19.26,27.995 C18.6999972,28.5650029 18.42,29.249996 18.42,30.05 C18.42,30.850004 18.6999972,31.5299972 19.26,32.09 C19.8200028,32.6500028 20.499996,32.93 21.3,32.93 C22.100004,32.93 22.7849971,32.6500028 23.355,32.09 C23.9250028,31.5299972 24.21,30.850004 24.21,30.05 C24.21,29.249996 23.9250028,28.5650029 23.355,27.995 C22.7849971,27.4249972 22.100004,27.14 21.3,27.14 Z" id="Combined-Shape"></path>
                    </g>
                </g>
            </g>
        </g>
    </g>
</svg>